<svg width="590" height="286" viewBox="0 0 590 286" fill="none" xmlns="http://www.w3.org/2000/svg">
<g clip-path="url(#clip0)">
<path d="M451.718 282.766C444.164 277.591 439.576 269.416 440.779 261.457C441.983 253.498 449.435 246.182 459.102 244.492C468.769 242.802 479.789 247.48 482.725 255.137C484.341 240.375 486.203 224.995 495.883 212.424C504.647 201.042 519.828 192.897 536.28 191.44C552.732 189.983 570.054 195.486 580.315 206.015C590.575 216.543 593.088 231.85 585.901 243.938C580.607 252.842 570.854 259.469 560.635 264.861C527.614 282.135 488.01 289.16 449.109 284.643L451.718 282.766Z" fill="#F2F2F2"/>
<path d="M564.045 195.791C550.47 204.756 538.017 214.783 526.864 225.726C509.411 242.794 495.288 261.93 484.987 282.468C484.232 283.966 487.233 284.619 487.979 283.137C504.834 249.759 531.741 220.34 566.24 197.57C567.789 196.547 565.582 194.777 564.045 195.791Z" fill="white"/>
<path d="M189.931 281.36C200.305 274.252 206.607 263.023 204.955 252.092C203.302 241.161 193.066 231.112 179.788 228.791C166.511 226.469 151.375 232.895 147.342 243.411C145.123 223.136 142.565 202.012 129.27 184.746C117.232 169.112 96.3818 157.925 73.7847 155.924C51.1876 153.922 27.3958 161.481 13.3028 175.942C-0.790123 190.403 -4.24073 211.427 5.62962 228.029C12.9008 240.26 26.2968 249.362 40.3324 256.767C85.1111 280.392 140.659 290.244 193.514 283.938" fill="#F2F2F2"/>
<path d="M35.6487 161.9C54.2941 174.214 71.3993 187.985 86.7168 203.016C102.037 218.031 115.524 234.216 126.99 251.343C133.399 260.95 139.156 270.834 144.236 280.951C145.272 283.009 141.15 283.904 140.126 281.869C131.128 264.034 119.997 246.957 106.89 230.883C93.8474 214.867 78.9193 199.915 62.3155 186.236C52.9244 178.503 43.0159 171.194 32.635 164.344C30.5072 162.939 33.5385 160.507 35.6487 161.9L35.6487 161.9Z" fill="white"/>
<path d="M423.511 285.374H175.983V79.4538C175.983 35.6427 219.943 -5.72205e-06 273.977 -5.72205e-06H325.517C379.551 -5.72205e-06 423.511 35.6427 423.511 79.4538V285.374Z" fill="#F2F2F2"/>
<path d="M371.971 285.373H175.983V79.4531C175.929 62.6657 182.485 46.3026 194.697 32.7462C195.147 32.2487 195.596 31.7576 196.059 31.2719C201.966 24.9905 208.996 19.4584 216.916 14.8585C217.363 14.5946 217.812 14.3352 218.268 14.0759C224.895 10.3574 232.064 7.31771 239.611 5.02584C240.059 4.88811 240.516 4.7501 240.972 4.61774C247.798 2.64271 254.874 1.28982 262.068 0.584057C262.515 0.534652 262.972 0.495993 263.43 0.457333C270.442 -0.150514 277.513 -0.150514 284.525 0.457333C284.982 0.495993 285.44 0.534647 285.891 0.584585C293.084 1.29039 300.158 2.64312 306.982 4.61776C307.438 4.75013 307.895 4.88812 308.344 5.02613C315.798 7.28908 322.883 10.2835 329.439 13.9425C329.895 14.1962 330.351 14.4555 330.8 14.7149C335.239 17.2842 339.409 20.1466 343.267 23.2728C346.361 25.7804 349.244 28.4533 351.896 31.2736C352.358 31.7577 352.807 32.2487 353.256 32.7454C365.469 46.302 372.025 62.6654 371.971 79.4531V285.373Z" fill="#CCCCCC"/>
<path d="M356.034 193.273C362.027 193.273 366.885 189.335 366.885 184.476C366.885 179.617 362.027 175.678 356.034 175.678C350.042 175.678 345.184 179.617 345.184 184.476C345.184 189.335 350.042 193.273 356.034 193.273Z" fill="#6C63FF"/>
<path d="M403.234 279.206H394.92L390.964 253.205L403.235 253.205L403.234 279.206Z" fill="#FFB8B8"/>
<path d="M388.981 277.28H405.015V285.466H378.885C378.885 284.391 379.146 283.326 379.654 282.333C380.161 281.34 380.905 280.438 381.842 279.678C382.779 278.917 383.892 278.314 385.117 277.903C386.342 277.492 387.655 277.28 388.981 277.28Z" fill="#2F2E41"/>
<path d="M444.602 279.206H436.287L432.332 253.205L444.603 253.205L444.602 279.206Z" fill="#FFB8B8"/>
<path d="M430.349 277.28H446.383V285.466H420.253C420.253 284.391 420.514 283.326 421.021 282.333C421.529 281.34 422.272 280.438 423.21 279.678C424.147 278.917 425.26 278.314 426.485 277.903C427.71 277.492 429.023 277.28 430.349 277.28Z" fill="#2F2E41"/>
<path d="M361.526 186.219C360.928 185.504 360.53 184.692 360.361 183.839C360.192 182.987 360.255 182.115 360.547 181.284C360.839 180.453 361.351 179.685 362.049 179.032C362.747 178.38 363.612 177.859 364.585 177.507L392.848 114.347L406.755 120.501L374.485 180.859C375.106 182.223 375.088 183.724 374.435 185.078C373.782 186.432 372.539 187.545 370.941 188.206C369.344 188.866 367.503 189.029 365.768 188.663C364.033 188.297 362.523 187.427 361.526 186.219Z" fill="#FFB8B8"/>
<path d="M440.355 198.087C439.431 197.657 438.634 197.069 438.021 196.362C437.408 195.656 436.993 194.85 436.806 194C436.619 193.15 436.664 192.276 436.938 191.442C437.213 190.608 437.709 189.832 438.393 189.17L429.637 122.358L445.464 122.944L449.103 188.663C450.398 189.668 451.194 191.023 451.34 192.472C451.485 193.921 450.97 195.363 449.891 196.525C448.813 197.687 447.247 198.487 445.489 198.775C443.731 199.063 441.904 198.818 440.355 198.087Z" fill="#FFB8B8"/>
<path d="M415.106 102.649C424.305 102.649 431.763 96.6022 431.763 89.1436C431.763 81.6851 424.305 75.6387 415.106 75.6387C405.907 75.6387 398.45 81.6851 398.45 89.1436C398.45 96.6022 405.907 102.649 415.106 102.649Z" fill="#FFB8B8"/>
<path d="M440.248 182.892H390.032L390.093 182.575C390.183 182.101 399.042 135.046 392.508 119.652C391.853 118.139 391.91 116.483 392.67 115.002C393.43 113.522 394.839 112.322 396.624 111.633H396.625C405.964 108.067 423.892 103.676 439.023 114.332C441.25 115.926 442.989 117.918 444.102 120.151C445.215 122.384 445.673 124.796 445.438 127.197L440.248 182.892Z" fill="#6C63FF"/>
<path d="M399.677 142L377.07 138.281L387.667 117.92C388.301 115.948 389.874 114.261 392.041 113.228C394.207 112.195 396.791 111.9 399.225 112.41C401.659 112.919 403.744 114.191 405.023 115.945C406.302 117.699 406.671 119.793 406.049 121.768L399.677 142Z" fill="#6C63FF"/>
<path d="M428.632 148.905L427.273 123.644C426.242 118.895 429.595 114.406 434.751 113.672C439.909 112.941 444.945 116.235 445.98 121.018L451.089 144.622L428.632 148.905Z" fill="#6C63FF"/>
<path d="M438.578 179.867C446.658 204.818 447.539 236.54 445.359 271.143L434.509 270.043L414.842 204.061L403.991 271.143L391.784 270.593C388.138 234.286 384.587 203.118 390.428 182.617L438.578 179.867Z" fill="#2F2E41"/>
<path d="M426.081 99.5807C422.974 102.264 417.203 100.824 416.798 97.1574C416.766 96.8727 416.769 96.5863 416.805 96.302C417.014 94.6779 418.171 93.2035 417.894 91.4888C417.831 91.062 417.635 90.6553 417.324 90.3072C414.848 87.6188 409.036 91.5097 406.699 89.0759C405.266 87.5836 406.95 85.234 405.851 83.5661C404.399 81.3647 400.101 82.4507 397.405 81.2451C394.406 79.9037 394.585 76.1726 396.559 73.9031C398.967 71.1353 403.189 69.6584 407.358 69.4456C411.527 69.2328 415.667 70.1465 419.56 71.3764C423.982 72.7737 428.367 74.7049 431.089 77.8578C434.398 81.692 434.717 86.8468 433.062 91.3302C432.055 94.0575 428.619 97.3891 426.081 99.5807Z" fill="#2F2E41"/>
<path d="M569.643 285.728H68.9606C68.7469 285.727 68.5421 285.658 68.3912 285.535C68.2403 285.413 68.1555 285.246 68.1555 285.073C68.1555 284.9 68.2403 284.734 68.3912 284.611C68.5421 284.488 68.7469 284.419 68.9606 284.418H569.643C569.857 284.419 570.061 284.488 570.212 284.611C570.363 284.734 570.448 284.9 570.448 285.073C570.448 285.246 570.363 285.413 570.212 285.535C570.061 285.658 569.857 285.727 569.643 285.728Z" fill="#3F3D56"/>
<path d="M318.058 225.715H229.897C228.736 225.72 227.619 225.351 226.793 224.69C225.967 224.029 225.498 223.129 225.489 222.187V62.6367C225.498 61.6953 225.967 60.7953 226.793 60.134C227.619 59.4727 228.736 59.1042 229.897 59.1092H318.058C319.219 59.1042 320.335 59.4727 321.161 60.134C321.987 60.7953 322.457 61.6953 322.466 62.6367V222.187C322.457 223.129 321.987 224.029 321.161 224.69C320.335 225.351 319.219 225.72 318.058 225.715Z" fill="white"/>
<path d="M322.466 110.735H225.489V111.835H322.466V110.735Z" fill="#CCCCCC"/>
<path d="M322.805 173.479H225.828V174.578H322.805V173.479Z" fill="#CCCCCC"/>
<path d="M257.362 59.1093H256.006V226.265H257.362V59.1093Z" fill="#CCCCCC"/>
<path d="M291.27 59.1093H289.914V226.265H291.27V59.1093Z" fill="#CCCCCC"/>
</g>
<defs>
<clipPath id="clip0">
<rect width="590" height="286" fill="white"/>
</clipPath>
</defs>
</svg>
