          <svg
              class="w-100"
              width="411"
              height="500"
              viewBox="0 0 411 500"
              fill="none"
              xmlns="http://www.w3.org/2000/svg"
            >
              <g id="Group 1">
                <g id="cp">
                  <g id="casing">
                    <path
                      id="Vector"
                      opacity="0.4"
                      d="M245.87 412.19L158.06 361.63C157.558 361.338 157.143 360.916 156.859 360.409C156.575 359.902 156.432 359.328 156.445 358.747C156.459 358.166 156.627 357.599 156.934 357.105C157.241 356.611 157.675 356.209 158.19 355.94L169.24 350.25C169.722 350.002 170.257 349.879 170.799 349.891C171.34 349.904 171.87 350.051 172.34 350.32L263.1 402.58C263.605 402.87 264.023 403.291 264.309 403.799C264.595 404.306 264.739 404.881 264.726 405.464C264.712 406.046 264.542 406.614 264.233 407.108C263.924 407.602 263.488 408.003 262.97 408.27L254.97 412.4C253.557 413.131 251.983 413.495 250.393 413.459C248.803 413.422 247.247 412.986 245.87 412.19Z"
                      fill="#D6D8E5"
                    />
                    <path
                      id="Vector_2"
                      d="M251.25 402.67L176.43 359.47C170.09 355.81 165 346 165 337.55V128.83C165 120.38 170.14 116.5 176.48 120.16L251.3 163.36C257.64 167.02 262.78 176.83 262.78 185.28V394C262.73 402.45 257.59 406.33 251.25 402.67Z"
                      fill="#B1B4C4"
                    />
                    <path
                      id="Vector_3"
                      d="M252.54 406.44L258.47 403.44L252.78 393.69L252.54 406.44Z"
                      fill="#B1B4C4"
                    />
                    <path
                      id="Vector_4"
                      d="M163.79 122.24L169.25 119.38L168.15 127.42L163.79 122.24Z"
                      fill="#B1B4C4"
                    />
                    <path
                      id="Vector_5"
                      d="M246.48 405.06L171.66 361.86C165.32 358.3 160.18 348.38 160.18 339.93V131.22C160.18 122.77 165.32 118.88 171.66 122.54L246.48 165.74C252.82 169.4 257.96 179.22 257.96 187.67V396.38C258 404.83 252.82 408.72 246.48 405.06Z"
                      fill="#616E84"
                    />
                    <path
                      id="Vector_6"
                      d="M257.16 188.2V396.91C257.16 405.37 252.03 409.25 245.69 405.59L216.34 388.65L207.22 383.38L170.86 362.38C164.52 358.72 159.39 348.91 159.39 340.45V131.75C159.39 123.29 164.52 119.42 170.86 123.07L245.69 166.27C252 169.93 257.16 179.74 257.16 188.2Z"
                      fill="#20232D"
                    />
                    <path
                      id="Vector_7"
                      d="M210.784 157.526C211.716 156.99 211.721 155.251 210.796 153.641C209.871 152.032 208.366 151.161 207.434 151.697C206.501 152.233 206.496 153.972 207.421 155.581C208.346 157.191 209.851 158.062 210.784 157.526Z"
                      fill="#2B303F"
                    />
                    <path
                      id="Vector_8"
                      opacity="0.1"
                      d="M208.28 155.14C207.99 154.951 207.749 154.698 207.576 154.399C207.402 154.1 207.301 153.765 207.28 153.42C207.28 152.78 207.73 152.53 208.28 152.84C208.571 153.029 208.814 153.284 208.988 153.585C209.162 153.886 209.262 154.223 209.28 154.57C209.27 155.2 208.83 155.46 208.28 155.14Z"
                      fill="white"
                    />
                    <path
                      id="Vector_9"
                      d="M260.2 215.66C259.59 216.02 259.09 215.66 259.09 214.83V205.93C259.097 205.516 259.2 205.109 259.393 204.743C259.586 204.376 259.862 204.06 260.2 203.82C260.81 203.46 261.3 203.82 261.3 204.65V213.55C261.295 213.963 261.193 214.37 261.002 214.737C260.811 215.103 260.536 215.42 260.2 215.66Z"
                      fill="#757B89"
                    />
                    <path
                      id="Vector_10"
                      d="M260.2 230.24C259.59 230.6 259.09 230.24 259.09 229.41V220.51C259.097 220.096 259.2 219.689 259.393 219.323C259.586 218.956 259.862 218.64 260.2 218.4C260.81 218.04 261.3 218.4 261.3 219.23V228.13C261.295 228.543 261.193 228.95 261.002 229.317C260.811 229.683 260.536 230 260.2 230.24Z"
                      fill="#757B89"
                    />
                    <path
                      id="Vector_11"
                      d="M251.77 186.08V389.36C251.77 394.48 248.18 396.56 243.77 393.99L220.38 380.49L218.31 379.3L217.62 378.89L212.54 376L197.9 367.57L191.83 364.07L189.39 362.66L172.81 353.09C168.38 350.53 164.81 344.3 164.81 339.17V135.86C164.81 130.74 168.4 128.66 172.81 131.22L202 148.09V148.17C202.12 150.341 202.751 152.453 203.84 154.335C204.929 156.216 206.447 157.815 208.27 159C211.73 161 214.53 159.37 214.53 155.39C214.53 155.39 214.53 155.33 214.53 155.3L243.75 172.17C248.18 174.73 251.77 181 251.77 186.08Z"
                      fill="white"
                    />
                  </g>
                  <path
                    id="Vector_12"
                    d="M237.67 379L176.9 343.9C175.851 343.214 174.977 342.291 174.35 341.205C173.723 340.12 173.36 338.902 173.29 337.65V329.33C173.29 327.03 174.91 326.1 176.9 327.25L237.67 362.33C238.718 363.017 239.589 363.941 240.214 365.026C240.84 366.112 241.201 367.329 241.27 368.58V376.9C241.27 379.2 239.65 380.13 237.67 379ZM176.9 328.44C175.48 327.62 174.32 328.28 174.32 329.92V338.25C174.37 339.144 174.629 340.013 175.077 340.788C175.526 341.563 176.15 342.221 176.9 342.71L237.67 377.79C239.09 378.61 240.24 377.95 240.24 376.31V368C240.192 367.107 239.935 366.238 239.488 365.463C239.042 364.688 238.419 364.029 237.67 363.54L176.9 328.44Z"
                    fill="#E9EAF2"
                  />
                  <g id="msg-cp-4">
                    <path
                      id="Vector_13"
                      d="M176.9 307.62L237.31 342.5C239.02 343.5 240.4 342.44 240.4 340.16V323.43C240.383 322.272 240.095 321.134 239.559 320.107C239.022 319.081 238.252 318.195 237.31 317.52L176.9 282.64C175.19 281.64 173.81 282.7 173.81 284.98V301.72C173.828 302.877 174.117 304.013 174.654 305.037C175.19 306.062 175.96 306.946 176.9 307.62Z"
                      fill="#E9EAF2"
                    />
                    <path
                      id="Vector_14"
                      d="M240.4 338.34V353.8L231.82 339.33L240.4 338.34Z"
                      fill="#E9EAF2"
                    />
                    <path
                      id="Vector_15"
                      d="M179.3 341.12L178.27 340.53V332.6L179.3 333.19V341.12Z"
                      fill="#E9EAF2"
                    />
                    <path
                      id="Vector_16"
                      d="M183.08 297.51L225.82 322.19V317.43L183.08 292.75V297.51Z"
                      fill="#D9DAE2"
                    />
                    <path
                      id="Vector_17"
                      d="M183.08 304.65L222.9 327.64V322.88L183.08 299.89V304.65Z"
                      fill="#D9DAE2"
                    />
                  </g>
                  <g id="msg-cp-3">
                    <path
                      id="Vector_18"
                      d="M221.19 283.34L176.9 257.77C175.959 257.098 175.188 256.213 174.652 255.188C174.115 254.164 173.827 253.027 173.81 251.87V243.16C173.81 240.89 175.19 239.84 176.9 240.83L221.19 266.4C222.13 267.074 222.899 267.959 223.435 268.983C223.972 270.008 224.261 271.144 224.28 272.3V281C224.28 283.28 222.89 284.33 221.19 283.34Z"
                      fill="#E9EAF2"
                    />
                    <path
                      id="Vector_19"
                      d="M173.81 249.75V265.21L182.39 260.65L173.81 249.75Z"
                      fill="#E9EAF2"
                    />
                    <path
                      id="Vector_20"
                      d="M217.68 275.67L183.13 255.72V250.96L217.68 270.91V275.67Z"
                      fill="#D9DAE2"
                    />
                  </g>
                  <g id="msg-cp-2">
                    <path
                      id="Vector_21"
                      d="M198.4 231.43L237.67 254.1C239.37 255.1 240.76 254.04 240.76 251.77V235C240.742 233.844 240.453 232.707 239.916 231.683C239.38 230.658 238.61 229.774 237.67 229.1L198.4 206.45C196.69 205.45 195.31 206.52 195.31 208.79V225.53C195.328 226.687 195.617 227.823 196.154 228.847C196.69 229.872 197.46 230.756 198.4 231.43Z"
                      fill="#E9EAF2"
                    />
                    <path
                      id="Vector_22"
                      d="M240.76 249.94V265.4L232.17 250.93L240.76 249.94Z"
                      fill="#E9EAF2"
                    />
                    <path
                      id="Vector_23"
                      d="M203.42 220.65L229.36 235.63V230.87L203.42 215.9V220.65Z"
                      fill="#D9DAE2"
                    />
                    <path
                      id="Vector_24"
                      d="M203.42 227.79L217.32 235.82V231.06L203.42 223.03V227.79Z"
                      fill="#D9DAE2"
                    />
                  </g>
                  <g id="msg-cp-1">
                    <path
                      id="Vector_25"
                      d="M237.67 207.53L176.9 172.44C175.959 171.768 175.188 170.883 174.652 169.858C174.115 168.834 173.827 167.697 173.81 166.54V149.8C173.81 147.53 175.19 146.48 176.9 147.47L237.67 182.55C238.61 183.226 239.379 184.113 239.915 185.139C240.452 186.165 240.741 187.302 240.76 188.46V205.19C240.76 207.47 239.37 208.51 237.67 207.53Z"
                      fill="#E9EAF2"
                    />
                    <path
                      id="Vector_26"
                      d="M232 190.58L186.17 164.12V159.36L232 185.82V190.58Z"
                      fill="#D9DAE2"
                    />
                    <path
                      id="Vector_27"
                      d="M173.81 164.71V180.17L182.39 175.61L173.81 164.71Z"
                      fill="#E9EAF2"
                    />
                    <path
                      id="Vector_28"
                      d="M208.83 184.34L186.17 171.25V166.5L208.83 179.58V184.34Z"
                      fill="#D9DAE2"
                    />
                  </g>
                </g>
                <g id="man-r">
                  <g id="man-with-smile">
                    <path
                      id="Vector_29"
                      opacity="0.4"
                      d="M361.95 311.11C381.081 311.11 396.59 302.156 396.59 291.11C396.59 280.064 381.081 271.11 361.95 271.11C342.819 271.11 327.31 280.064 327.31 291.11C327.31 302.156 342.819 311.11 361.95 311.11Z"
                      fill="#D6D8E5"
                    />
                    <path
                      id="Vector_30"
                      d="M381 286C378.59 288 375 286.17 374.86 286.35C372.033 288.976 369.065 291.446 365.97 293.75C364.47 294.93 362.13 296.51 362.55 298.75C363.31 302.81 369.81 301.56 372.26 300.32C374.71 299.08 376.71 297.02 379.03 295.58C380.69 294.58 382.32 294.02 382.58 291.93C382.75 290.69 381.45 285.94 381 286Z"
                      fill="#38226D"
                    />
                    <path
                      id="Vector_31"
                      d="M382.56 291.11C382.25 293.11 380.64 293.66 379 294.68C376.64 296.14 374.56 298.26 372.11 299.5C369.85 300.64 364.2 301.78 362.61 298.88C363.47 302.8 369.85 301.57 372.28 300.34C374.71 299.11 376.73 297.04 379.05 295.6C380.71 294.6 382.34 294.04 382.6 291.95C382.614 291.669 382.6 291.388 382.56 291.11Z"
                      fill="#9C73FF"
                    />
                    <path
                      id="Vector_32"
                      d="M360.12 278.22C357.71 280.22 353.49 278.04 353.32 278.22C350.807 280.758 348.153 283.152 345.37 285.39C343.87 286.57 341.53 288.15 341.96 290.39C342.71 294.45 349.21 293.2 351.66 291.96C354.11 290.72 356.12 288.66 358.44 287.22C360.09 286.22 361.72 285.66 361.98 283.57C362.13 282.33 360.55 278.17 360.12 278.22Z"
                      fill="#38226D"
                    />
                    <path
                      id="Vector_33"
                      d="M361.9 283C361.59 285 359.98 285.55 358.34 286.57C355.98 288.04 353.9 290.15 351.45 291.39C349.19 292.54 343.54 293.68 341.95 290.78C342.81 294.69 349.2 293.46 351.62 292.23C354.04 291 356.07 288.94 358.4 287.49C360.05 286.49 361.68 285.93 361.94 283.84C361.954 283.559 361.94 283.278 361.9 283Z"
                      fill="#9C73FF"
                    />
                    <path
                      d="M381.1 197C380.99 200.65 379.85 216.47 379.35 224.84C378.85 233.21 378.72 243.48 378.72 243.48C378.72 243.48 380.17 249.58 381.1 256.75C382.03 263.92 381.1 286.55 381.1 286.55C380.18 287.143 379.109 287.459 378.015 287.459C376.921 287.459 375.85 287.143 374.93 286.55C374.93 286.55 371.08 268.44 369.29 260.28C367.5 252.12 367.2 247.42 366.29 242.36C365.17 236.24 362.75 207.68 362.75 207.68L361.75 207.74L359.19 240C359.985 242.377 360.531 244.83 360.82 247.32C361.52 252.57 360.08 278.99 360.08 278.99C359.05 279.562 357.882 279.838 356.706 279.789C355.529 279.739 354.388 279.366 353.41 278.71C353.41 278.71 346.97 243.71 346.97 238.4C346.97 234.88 347.57 188.4 347.57 188.4L381.1 197Z"
                      fill="#8C50FF"
                    />
                    <path
                      d="M372.37 126.63C372.37 126.63 371.96 134.57 372.14 135.28C372.32 135.99 375.78 138.28 376.79 139.14C377.8 140 371.3 146.39 368.14 147.84C364.98 149.29 354.96 145.47 354.79 140.55C354.62 135.63 356.5 131.5 358.04 131.28C359.58 131.06 372.37 126.63 372.37 126.63Z"
                      fill="#FFCEA9"
                    />
                    <g id="shoulders-r">
                      <path
                        id="Vector_34"
                        d="M353.21 133.72C353.21 133.72 351.06 130.43 343.21 148.72C335.36 167.01 330.52 171.81 327 176.36C323.82 180.5 322.25 173.92 322.25 173.92C322.25 173.92 324.78 170.73 322.67 170.73C321.49 170.8 319.84 173.23 319.84 173.23L322.53 177.53L329.53 181.08C329.53 181.08 338.1 173.2 340.87 168.34C343.87 164.51 348.36 156.91 348.36 156.91L353.21 133.72Z"
                        fill="#FFCEA9"
                      />
                      <path
                        id="Vector_35"
                        d="M319.87 176.94C319.79 176.88 317.7 174.45 317.7 174.45C317.7 174.45 316.45 173.36 317.81 173.28C319.17 173.2 324.02 173.19 324.02 173.19C324.516 173.142 325.011 173.281 325.41 173.58C326.02 174.06 333.05 182.96 333.05 182.96C333.05 182.96 333.36 183.5 332.45 183.56C331.54 183.62 325.65 183.56 325.65 183.56L319.87 176.94Z"
                        fill="#20232D"
                      />
                      <path
                        id="Vector_36"
                        d="M319.3 175.44C319.3 175.44 317.23 175.05 317.71 177.04C318.19 179.03 321.16 181.09 321.16 181.09L324.26 183.69C324.639 183.933 325.08 184.063 325.53 184.063C325.98 184.063 326.421 183.933 326.8 183.69C327.6 183.19 328.72 181.83 327.49 180.54C326.26 179.25 325.16 176.42 322.02 176.54C322.02 176.54 321.85 175.79 320.02 175.54"
                        fill="#FFCEA9"
                      />
                    </g>
                    <path
                      d="M373.26 136.65C373.26 136.65 367.49 145.23 359.45 146.04C356.92 143.54 356.69 134.65 360.2 131.81C360.2 131.81 356.97 129.2 354.76 129.71C352.145 131.123 350.143 133.452 349.14 136.25C347.66 140.78 346.83 146 346.96 154.43C347.09 162.86 346.96 188.6 346.96 188.6C346.96 188.6 348.1 194.05 355.37 198.1C362.64 202.15 368 202.54 373 201.39C377.07 200.44 380.43 199.01 381.83 196.06C381.47 190.15 378.83 174.74 379.83 167.31C380.83 159.88 382.38 154.31 382.83 148.31C383.28 142.31 382.03 142.42 379.02 140.31C377.192 138.951 375.267 137.728 373.26 136.65Z"
                      fill="#F4F4F4"
                    />
                    <path
                      d="M376.48 200.49C377.68 199.15 379.74 191.72 380.92 187.03C382.059 181.765 382.289 176.343 381.6 171C380.54 164.6 377.6 155.74 376.77 152.07C375.94 148.4 377.04 146.84 378.67 145.36C380.58 143.62 383.43 144.14 385.27 149.24C387.671 156.294 389.284 163.591 390.08 171C390.511 176.518 390.028 182.069 388.65 187.43C387.42 192.43 385.65 196.05 383.31 200.63C382.68 201.87 381.24 205.36 380.31 207.88C379.38 210.4 375.39 201.71 376.48 200.49Z"
                      fill="#FFCEA9"
                    />
                    <path
                      d="M354.39 114.79C355.34 108.62 359.78 103.95 366.14 104.3C368.697 104.434 371.148 105.368 373.146 106.97C375.145 108.571 376.59 110.76 377.278 113.227C377.966 115.693 377.863 118.314 376.982 120.719C376.102 123.123 374.488 125.191 372.37 126.63C372.141 127.562 371.806 128.465 371.37 129.32C369.12 131.95 362.32 133.58 360.37 133.32C357.86 132.96 356.51 131.91 355.31 129.17C353.21 124.31 353.87 117.84 354.39 114.79Z"
                      fill="#FFCEA9"
                    />
                    <path
                      id="Vector_37"
                      d="M372.37 126.63L371.79 121.25C371.79 121.25 376.18 109.87 365.79 112.05C358.93 113.5 357.21 114.12 355.13 109.52C353.05 104.92 360.4 100.79 369.13 101.94C372.148 102.241 374.943 103.668 376.957 105.936C378.971 108.204 380.058 111.147 380 114.18C379.72 117.57 378.82 124.42 372.37 126.63Z"
                      fill="#3A2C6D"
                    />
                    <path
                      id="Vector_38"
                      d="M390.14 157.5C390.14 157.5 384.48 163.14 377.77 161.5C376.77 160.85 374.51 147.67 374.51 147.67C374.51 147.67 374.51 140.37 380.11 140.56C385.71 140.75 390.14 157.5 390.14 157.5Z"
                      fill="#EDEDED"
                    />
                    <path
                      id="Vector_39"
                      d="M347 150.1C347 150.1 343.33 150.56 342.11 148.84C342.33 145.84 347.22 130.54 354.81 129.71C352.962 131.381 351.365 133.311 350.07 135.44C347.36 139.93 347 150.1 347 150.1Z"
                      fill="#EDEDED"
                    />
                  </g>
                  <g id="msg">
                    <path
                      id="Vector_40"
                      d="M404.05 34.26L346.12 0.820013C345.564 0.434027 344.928 0.178674 344.26 0.0730432C343.591 -0.0325878 342.908 0.0142355 342.26 0.210013C342.011 0.307773 341.779 0.442634 341.57 0.610013L335.11 4.31001L340.11 10.18V34.34C340.222 36.4274 340.823 38.4592 341.865 40.2711C342.907 42.0831 344.362 43.6242 346.11 44.77L364.16 56.11L369.06 67.34L363.91 76.09L371.1 72L377.92 64.07L399.68 75.87L400.86 82.87L408.19 78.67L408.39 78.56H408.46C409.022 78.1116 409.463 77.5303 409.744 76.8687C410.025 76.207 410.137 75.4857 410.07 74.77V44.77C409.969 42.6671 409.37 40.6181 408.324 38.7912C407.277 36.9643 405.813 35.4114 404.05 34.26Z"
                      fill="#8C50FF"
                    />
                    <path
                      id="Vector_41"
                      opacity="0.2"
                      d="M404.05 34.26L346.12 0.820013C345.564 0.434027 344.928 0.178674 344.26 0.0730432C343.591 -0.0325878 342.908 0.0142355 342.26 0.210013C342.011 0.307773 341.779 0.442634 341.57 0.610013L335.11 4.31001L340.11 10.18V34.34C340.222 36.4274 340.823 38.4592 341.865 40.2711C342.907 42.0831 344.362 43.6242 346.11 44.77L364.16 56.11L369.06 67.34L363.91 76.09L371.1 72L377.92 64.07L399.68 75.87L400.86 82.87L408.19 78.67L408.39 78.56H408.46C409.022 78.1116 409.463 77.5303 409.744 76.8687C410.025 76.207 410.137 75.4857 410.07 74.77V44.77C409.969 42.6671 409.37 40.6181 408.324 38.7912C407.277 36.9643 405.813 35.4114 404.05 34.26Z"
                      fill="black"
                    />
                    <path
                      id="Vector_42"
                      d="M396.86 38.37L338.94 4.93C335.62 3.01 332.94 4.57 332.94 8.41V38.41C333.052 40.4974 333.653 42.5292 334.695 44.3411C335.737 46.1531 337.192 47.6942 338.94 48.84L357 60.22L363.93 76.09L370.75 68.16L396.87 82.32C400.2 84.24 402.87 82.69 402.87 78.85V48.85C402.766 46.7529 402.167 44.7103 401.123 42.8888C400.078 41.0674 398.617 39.519 396.86 38.37Z"
                      fill="#8C50FF"
                    />
                    <path
                      id="Vector_43"
                      d="M351.995 37.0158C353.616 36.0797 353.617 33.0448 351.996 30.2372C350.375 27.4296 347.746 25.9125 346.125 26.8486C344.503 27.7848 344.503 30.8196 346.124 33.6272C347.745 36.4348 350.373 37.9519 351.995 37.0158Z"
                      fill="white"
                    />
                    <path
                      id="Vector_44"
                      d="M370.62 47.1314C372.249 46.1953 372.255 43.15 370.634 40.3295C369.013 37.509 366.379 35.9815 364.75 36.9176C363.121 37.8537 363.115 40.899 364.736 43.7195C366.357 46.54 368.991 48.0675 370.62 47.1314Z"
                      fill="white"
                    />
                    <path
                      id="Vector_45"
                      d="M386.353 56.8627C387.974 55.9266 387.975 52.8917 386.354 50.0842C384.733 47.2766 382.104 45.7595 380.483 46.6956C378.861 47.6317 378.861 50.6666 380.482 53.4742C382.103 56.2817 384.731 57.7988 386.353 56.8627Z"
                      fill="white"
                    />
                  </g>
                  <g id="smile">
                    <path
                      id="Vector_46"
                      d="M304.48 96.86C304.48 89.86 299.55 81.29 293.48 77.78C290.24 75.91 287.34 75.86 285.33 77.26L281.67 79.33L283.23 79.95C282.694 81.2806 282.432 82.7058 282.46 84.14C282.46 91.14 287.39 99.7 293.46 103.22C294.396 103.776 295.406 104.196 296.46 104.47V106.66L301.18 104C303.26 102.81 304.48 100.35 304.48 96.86Z"
                      fill="#DD990E"
                    />
                    <path
                      id="Vector_47"
                      d="M297.215 106.334C301.515 103.852 301.513 95.7986 297.211 88.3468C292.908 80.895 285.935 76.8666 281.635 79.3491C277.335 81.8316 277.337 89.885 281.639 97.3368C285.942 104.789 292.915 108.817 297.215 106.334Z"
                      fill="#F9CB07"
                    />
                    <path
                      id="Vector_48"
                      d="M286.187 89.3952C286.799 89.0417 286.798 87.8944 286.185 86.8326C285.572 85.7708 284.579 85.1965 283.967 85.55C283.354 85.9035 283.355 87.0508 283.968 88.1126C284.581 89.1744 285.574 89.7486 286.187 89.3952Z"
                      fill="#CC8B09"
                    />
                    <path
                      id="Vector_49"
                      d="M294.727 94.3147C295.34 93.9612 295.339 92.8139 294.726 91.7521C294.113 90.6903 293.12 90.116 292.507 90.4695C291.895 90.823 291.896 91.9703 292.509 93.0321C293.122 94.0939 294.115 94.6681 294.727 94.3147Z"
                      fill="#CC8B09"
                    />
                    <path
                      id="Vector_50"
                      d="M285.08 94.26C285.08 94.26 286.52 98.2 289.42 99.87C292.32 101.54 294.02 99.42 294.02 99.42L285.08 94.26Z"
                      fill="#CC8B09"
                    />
                  </g>
                </g>
                <g id="man-l">
                  <g id="man-with-like">
                    <path
                      id="Vector_51"
                      opacity="0.4"
                      d="M34.58 500C53.678 500 69.16 491.064 69.16 480.04C69.16 469.016 53.678 460.08 34.58 460.08C15.482 460.08 0 469.016 0 480.04C0 491.064 15.482 500 34.58 500Z"
                      fill="#D6D8E5"
                    />
                    <path
                      d="M9.21999 330.53C8.82999 333.89 4.82999 348.38 5.68999 353.35C6.54999 358.32 20.24 366.62 20.24 366.62L22.14 358.12L14.55 350.69L16.6 336.61L9.21999 330.53Z"
                      fill="#FFCEA9"
                    />
                    <path
                      d="M19.81 316.24C18.4771 315.627 16.9657 315.523 15.5616 315.949C14.1575 316.374 12.958 317.3 12.19 318.55C10.19 321.89 8.08001 333.33 7.89001 335.29C7.89001 335.29 10.72 339.19 14.96 338.54L19.81 316.24Z"
                      fill="#EDEDED"
                    />
                    <path
                      id="Vector_52"
                      d="M35.45 477.85C38.429 478.674 41.6127 478.289 44.31 476.78C46.45 476.85 58.04 471.89 59.61 476.05C60.99 479.7 55.97 483.05 53.29 483.73C47.44 485.14 43.11 488.06 40.76 488.56C39.01 488.93 36.76 489.17 35.34 487.79C33.67 486.14 33.81 480 35.45 477.85Z"
                      fill="#2B2A30"
                    />
                    <path
                      id="Vector_53"
                      d="M40.76 487.55C43.11 487.05 47.44 484.13 53.29 482.72C55.54 482.17 59.41 479.72 59.8 476.78C60.32 480.14 55.8 483.12 53.29 483.78C47.44 485.19 43.11 488.11 40.76 488.61C39.01 488.98 36.76 489.22 35.34 487.84C34.9789 487.444 34.7182 486.968 34.58 486.45C35.4534 487.102 36.4669 487.541 37.5398 487.732C38.6127 487.923 39.7154 487.86 40.76 487.55Z"
                      fill="#BF4B4B"
                    />
                    <path
                      id="Vector_54"
                      d="M16.66 469.41C19.639 470.234 22.8227 469.849 25.52 468.34C27.65 468.41 39.24 463.45 40.82 467.61C42.2 471.26 37.18 474.61 34.5 475.29C28.65 476.71 24.31 479.62 21.96 480.12C20.21 480.49 17.96 480.73 16.55 479.35C14.87 477.7 15 471.59 16.66 469.41Z"
                      fill="#2B2A30"
                    />
                    <path
                      id="Vector_55"
                      d="M22 479.11C24.35 478.61 28.69 475.69 34.54 474.28C36.78 473.73 40.66 471.28 41.05 468.34C41.57 471.7 37.05 474.68 34.54 475.34C28.69 476.76 24.35 479.67 22 480.17C20.25 480.54 18 480.78 16.59 479.4C16.2293 479.002 15.9657 478.527 15.82 478.01C16.6934 478.662 17.7069 479.101 18.7798 479.292C19.8527 479.483 20.9554 479.42 22 479.11Z"
                      fill="#BF4B4B"
                    />
                    <path
                      d="M16.43 437.93C16.9254 433.626 17.8193 429.378 19.1 425.24C19.1 425.24 18.31 414.29 17.91 403.9C17.45 392.12 13.36 381.75 16.59 372.34L53 380.43C53 380.43 50.8 427.43 50.31 433.1C50.0435 437.526 49.4991 441.932 48.68 446.29C47.02 455.41 44.32 477.1 44.32 477.1C40.48 479.34 35.43 478.1 35.43 478.1C35.43 478.1 35.71 450.66 35.96 444.1C36.26 436.1 36.5 436.69 36.5 436.69L35.3 416.69L34.52 406.75C34.52 406.75 33.52 414.05 32.86 420.57C32.28 426.25 30.86 431.39 29.38 441.97C28.05 451.15 25.89 469.59 25.89 469.59C22.05 471.82 16.83 469.97 16.83 469.97C16.83 469.97 15.39 445.89 16.43 437.93Z"
                      fill="#E26161"
                    />
                    <path
                      d="M21.74 316.44C24.51 316.58 26.57 317.29 26.91 316.44C27.2101 315.011 27.4238 313.565 27.55 312.11C27.23 311.3 26.95 310.44 26.95 310.44C23.48 308.3 22.38 304.54 21.95 300.17C21.17 292.69 25.21 286.17 32.69 285.36C39.69 284.62 44.9 289.57 46.28 296.36C47.02 299.71 48.5 306.04 46.5 311.55C45.38 314.63 43.94 317.08 42.5 317.55C41.1074 317.506 39.7185 317.382 38.34 317.18C38.34 317.18 37.97 319.25 37.71 320.59C37.45 321.93 37.56 322.59 40.21 324.26C42.86 325.93 36.21 329.26 31.84 328.93C27.47 328.6 22.58 325.93 21.23 323.15C19.71 320.05 19.84 316.35 21.74 316.44Z"
                      fill="#FFCEA9"
                    />
                    <path
                      d="M25.74 316.85C24.98 318.77 26.93 321.11 32.13 322.74C37.33 324.37 37.8 322.27 37.8 322.27C37.8 322.27 45.42 325.75 47.9 327.48C51.03 329.66 52.41 335.98 52.83 346.64C53.32 358.97 53.36 377.27 52.95 380.43C52.95 380.43 47.12 386.24 39.65 385.63C32.18 385.02 19.65 378.41 16.58 373.31C16.66 362.49 17.93 360.73 16.18 354.5C12.18 340.24 10.06 334.4 12 324.92C13.61 317.11 15.86 316.14 19 316.21C21.2562 316.307 23.5059 316.52 25.74 316.85Z"
                      fill="#F4F4F4"
                    />
                    <path
                      id="Vector_56"
                      d="M46 295.4C46 295.4 52.46 285.57 38.46 283.57C28.36 282.13 21.87 288.62 21.12 295.66C20.4 302.39 24.54 309.37 27.54 312.15C29 312.67 32.14 312.97 36.27 311.09C36.4346 309.258 36.4981 307.419 36.46 305.58C36.46 305.58 31.54 295.22 46 295.4Z"
                      fill="#2B2A30"
                    />
                    <g id="shoulders-l">
                      <path
                        d="M64.56 356.84C58.44 358.38 57 354.52 56.19 351.32C54.25 343.57 53.19 336.58 51.74 332.18C50.03 327 48.24 326.18 45.74 325.18C42.74 324 40.24 326.5 41.22 333.1C42.39 340.9 43.92 346.38 46.83 355.62C47.6 358.03 49.31 362.31 51.83 364.38C54.99 366.94 59.75 366.83 66.95 365.04C70.02 364.27 73.39 362.44 79.2 359.73C80.78 359 82 358.5 85 357.1C88.0065 355.749 90.6415 353.69 92.68 351.1C94.25 348.83 93.97 347.38 93.68 346.87C93.39 346.36 93.05 346.74 92.21 347.69C91.0007 349.307 89.5062 350.69 87.8 351.77C87.8 351.77 89.74 349.77 90.8 348.47C91.7378 347.319 92.518 346.047 93.12 344.69C93.67 343.36 92.53 341.56 91.66 342.51C90.79 343.46 90.38 344.41 88.8 346.31C87.9458 347.317 86.9757 348.22 85.91 349C86.8922 347.669 87.765 346.261 88.52 344.79C89.52 342.74 86.17 343.79 84.25 345.79C82.85 347.24 81.66 348.08 81.62 347.68C81.58 347.28 78.86 350.21 77.47 351.68C76.08 353.15 70.39 355.37 64.56 356.84Z"
                        fill="#FFCEA9"
                      />
                      <path
                        id="Vector_57"
                        d="M78.82 349.11C78.82 349.11 77.23 346.22 78.24 345.5C79.25 344.78 80.69 347.5 80.98 348.55C81.27 349.6 80.87 348.23 80.87 348.23C80.87 348.23 79.78 344.96 80.49 344.33C81.2 343.7 82.15 345.1 83.1 347.15C84.05 349.2 83.33 346.98 83.33 346.98C83.33 346.98 81.76 343.7 82.43 343.24C83.33 342.64 84.81 344.58 85.69 346.33C86.57 348.08 84.51 350.16 84.51 350.16L78.82 349.11Z"
                        fill="#FFCEA9"
                      />
                      <path
                        id="Vector_58"
                        d="M81.89 354.28L76 350.85C75.49 350.56 75.56 350.06 76.14 349.72L90.48 341.44C90.783 341.269 91.1225 341.172 91.4703 341.158C91.8181 341.144 92.1642 341.213 92.48 341.36L98.42 344.79C98.92 345.08 98.86 345.59 98.28 345.92L83.85 354.2C83.5528 354.367 83.2202 354.461 82.8796 354.475C82.5389 354.489 82.1998 354.422 81.89 354.28Z"
                        fill="#B1B4C4"
                      />
                      <path
                        id="Vector_59"
                        d="M75.61 350.36V349.81L76.25 350.05L75.61 350.36Z"
                        fill="#B1B4C4"
                      />
                      <path
                        id="Vector_60"
                        d="M81.89 353.82L76 350.39C75.49 350.1 75.56 349.59 76.14 349.26L90.43 341C90.7322 340.826 91.0719 340.728 91.4201 340.714C91.7684 340.7 92.1149 340.771 92.43 340.92L98.37 344.35C98.87 344.64 98.81 345.14 98.23 345.48L83.89 353.76C83.5853 353.928 83.245 354.021 82.8972 354.032C82.5494 354.042 82.2041 353.97 81.89 353.82Z"
                        fill="#616E84"
                      />
                      <path
                        id="Vector_61"
                        d="M76.9651 352.5C76.9939 352.484 76.9926 352.428 76.9623 352.375C76.9321 352.322 76.8842 352.293 76.8555 352.309C76.8268 352.326 76.828 352.382 76.8583 352.435C76.8886 352.487 76.9364 352.517 76.9651 352.5Z"
                        fill="#757B89"
                      />
                      <path
                        id="Vector_62"
                        d="M76.9423 351.259C76.971 351.242 76.9697 351.186 76.9393 351.133C76.9089 351.081 76.861 351.052 76.8323 351.068C76.8036 351.085 76.805 351.141 76.8354 351.193C76.8657 351.246 76.9136 351.275 76.9423 351.259Z"
                        fill="#757B89"
                      />
                      <path
                        id="Vector_63"
                        d="M77.2298 351.436C77.2585 351.419 77.2572 351.363 77.2268 351.311C77.1964 351.258 77.1485 351.229 77.1198 351.245C77.0911 351.262 77.0925 351.318 77.1229 351.371C77.1532 351.423 77.2011 351.453 77.2298 351.436Z"
                        fill="#757B89"
                      />
                      <path
                        id="Vector_64"
                        d="M77.521 351.59C77.5497 351.573 77.5483 351.517 77.5179 351.464C77.4875 351.412 77.4397 351.382 77.411 351.399C77.3823 351.416 77.3836 351.472 77.414 351.524C77.4444 351.577 77.4923 351.606 77.521 351.59Z"
                        fill="#757B89"
                      />
                      <path
                        id="Vector_65"
                        d="M79.9727 353.014C80.0014 352.998 80.0001 352.942 79.9697 352.889C79.9393 352.836 79.8914 352.807 79.8627 352.824C79.834 352.84 79.8354 352.896 79.8658 352.949C79.8961 353.002 79.944 353.031 79.9727 353.014Z"
                        fill="#757B89"
                      />
                      <path
                        id="Vector_66"
                        d="M80.2589 353.177C80.2876 353.16 80.2862 353.104 80.2558 353.051C80.2255 352.999 80.1776 352.969 80.1489 352.986C80.1202 353.003 80.1215 353.059 80.1519 353.111C80.1823 353.164 80.2302 353.193 80.2589 353.177Z"
                        fill="#757B89"
                      />
                      <path
                        id="Vector_67"
                        d="M80.5414 353.345C80.5701 353.328 80.5687 353.272 80.5383 353.22C80.5079 353.167 80.4601 353.138 80.4314 353.155C80.4027 353.171 80.404 353.227 80.4344 353.28C80.4648 353.332 80.5127 353.362 80.5414 353.345Z"
                        fill="#757B89"
                      />
                      <path
                        id="Vector_68"
                        d="M80.8275 353.507C80.8562 353.491 80.8549 353.435 80.8245 353.382C80.7941 353.329 80.7462 353.3 80.7175 353.317C80.6888 353.333 80.6902 353.389 80.7206 353.442C80.7509 353.495 80.7988 353.524 80.8275 353.507Z"
                        fill="#757B89"
                      />
                      <path
                        id="Vector_69"
                        d="M79.09 352.55L78.3 352.1C78.2723 352.079 78.2499 352.052 78.2343 352.02C78.2187 351.989 78.2104 351.955 78.21 351.92C78.21 351.86 78.21 351.83 78.3 351.86L79.09 352.31C79.1174 352.329 79.1399 352.355 79.1556 352.384C79.1713 352.414 79.1796 352.447 79.18 352.48C79.18 352.55 79.14 352.58 79.09 352.55Z"
                        fill="#757B89"
                      />
                      <path
                        id="Vector_70"
                        d="M98.67 345.26V344.74L98.16 345.06L98.67 345.26Z"
                        fill="#B1B4C4"
                      />
                      <path
                        id="Vector_71"
                        d="M96.87 346.56L96.14 346.98C96.14 346.98 96.06 346.98 96.06 346.92C96.062 346.889 96.0701 346.859 96.0838 346.832C96.0975 346.804 96.1166 346.78 96.14 346.76L96.87 346.34C96.87 346.34 96.96 346.34 96.96 346.4C96.9597 346.432 96.9513 346.464 96.9356 346.492C96.9199 346.52 96.8973 346.543 96.87 346.56Z"
                        fill="#757B89"
                      />
                      <path
                        id="Vector_72"
                        d="M95.75 347.21L95.02 347.63C95.02 347.63 94.94 347.63 94.94 347.57C94.9392 347.539 94.946 347.508 94.96 347.48C94.9739 347.452 94.9945 347.428 95.02 347.41L95.75 346.99C95.75 346.99 95.84 346.99 95.84 347.05C95.8388 347.082 95.8301 347.113 95.8144 347.141C95.7988 347.169 95.7767 347.192 95.75 347.21Z"
                        fill="#757B89"
                      />
                      <path
                        id="Vector_73"
                        d="M94.72 342.99C94.8691 342.99 94.99 342.923 94.99 342.84C94.99 342.757 94.8691 342.69 94.72 342.69C94.5709 342.69 94.45 342.757 94.45 342.84C94.45 342.923 94.5709 342.99 94.72 342.99Z"
                        fill="#2B303F"
                      />
                      <path
                        id="Vector_74"
                        d="M91.12 352.91C91.12 352.91 94.26 350.08 94.12 346.33C93.93 343.72 92.35 345.6 92.35 345.6L90.76 348.48C89.9715 349.544 88.9438 350.407 87.76 351C86.6457 351.107 85.5377 351.271 84.44 351.49C82.49 351.87 80.55 354.31 80.55 354.31L83 356.24L91.12 352.91Z"
                        fill="#FFCEA9"
                      />
                      <path
                        id="Vector_75"
                        d="M81.89 353.74L76 350.31C75.49 350.02 75.56 349.51 76.14 349.17L90.48 340.89C90.783 340.719 91.1225 340.622 91.4703 340.608C91.8181 340.594 92.1642 340.663 92.48 340.81L98.42 344.24C98.92 344.53 98.86 345.04 98.28 345.37L83.94 353.65C83.6322 353.833 83.284 353.937 82.9263 353.953C82.5686 353.968 82.2126 353.895 81.89 353.74Z"
                        fill="#20232D"
                      />
                      <path
                        id="Vector_76"
                        opacity="0.5"
                        d="M97.69 344.38L95.38 343C95.2257 343.081 95.0541 343.123 94.88 343.123C94.7059 343.123 94.5343 343.081 94.38 343C94.1 342.84 94.1 342.59 94.38 342.43L92.07 341.09C91.8711 340.991 91.652 340.94 91.43 340.94C91.2079 340.94 90.9889 340.991 90.79 341.09L76.79 349.15C76.44 349.36 76.44 349.69 76.79 349.89L82.42 353.14C82.6172 353.239 82.8346 353.29 83.055 353.29C83.2754 353.29 83.4928 353.239 83.69 353.14L97.69 345.07C98.05 344.91 98.05 344.58 97.69 344.38Z"
                        fill="url(#paint0_linear)"
                      />
                      <path
                        id="Vector_77"
                        opacity="0.1"
                        d="M94.64 342.89C94.64 342.89 94.64 342.82 94.64 342.8C94.6639 342.785 94.6917 342.777 94.72 342.777C94.7483 342.777 94.776 342.785 94.8 342.8C94.8 342.8 94.8 342.86 94.8 342.89C94.7485 342.91 94.6914 342.91 94.64 342.89Z"
                        fill="white"
                      />
                      <path
                        id="Vector_78"
                        d="M97.69 344.38L95.38 343C95.2257 343.081 95.0541 343.123 94.88 343.123C94.7059 343.123 94.5343 343.081 94.38 343C94.1 342.84 94.1 342.59 94.38 342.43L92.07 341.09C91.8711 340.991 91.652 340.94 91.43 340.94C91.2079 340.94 90.9889 340.991 90.79 341.09L76.79 349.15C76.44 349.36 76.44 349.69 76.79 349.89L82.42 353.14C82.6172 353.239 82.8346 353.29 83.055 353.29C83.2754 353.29 83.4928 353.239 83.69 353.14L97.69 345.07C98.05 344.91 98.05 344.58 97.69 344.38Z"
                        fill="#2B303F"
                      />
                    </g>
                    <path
                      d="M43.45 324.11C47.54 323.5 50.45 325.34 52.24 331.54C54.03 337.74 55.31 342.83 55.31 342.83C53.692 345.166 51.2409 346.794 48.46 347.38C43.56 348.56 41.8 346.23 41.8 346.23C41.8 346.23 40.44 339.73 39.6 335.31C38.76 330.89 38.39 324.85 43.45 324.11Z"
                      fill="#EDEDED"
                    />
                  </g>
                  <g id="msg_2">
                    <path
                      id="Vector_79"
                      d="M76.55 220.38L18.74 187C18.1846 186.617 17.55 186.364 16.8835 186.261C16.2169 186.157 15.5356 186.204 14.89 186.4C14.6432 186.502 14.4112 186.637 14.2 186.8L7.75 190.49L12.75 196.36V220.46C12.8623 222.544 13.464 224.573 14.5064 226.382C15.5488 228.19 17.0026 229.728 18.75 230.87L36.75 242.18L41.64 253.39L36.49 262.12L43.66 258.02L50.47 250.11L72.2 261.88L73.37 268.88L80.69 264.7L80.89 264.58H80.96C81.5187 264.129 81.9572 263.547 82.2363 262.886C82.5155 262.225 82.6267 261.505 82.56 260.79V230.79C82.4466 228.705 81.8434 226.675 80.7992 224.867C79.755 223.058 78.2992 221.521 76.55 220.38Z"
                      fill="#FF7B7B"
                    />
                    <path
                      id="Vector_80"
                      d="M69.39 224.48L11.58 191.11C8.25999 189.19 5.57999 190.74 5.57999 194.57V224.57C5.69225 226.654 6.29397 228.683 7.33639 230.492C8.3788 232.3 9.83259 233.838 11.58 234.98L29.58 246.3L36.49 262.13L43.3 254.22L69.38 268.36C72.7 270.27 75.38 268.72 75.38 264.89V234.89C75.2688 232.806 74.6686 230.778 73.628 228.97C72.5874 227.161 71.1355 225.623 69.39 224.48Z"
                      fill="#E26D6D"
                    />
                  </g>
                  <g id="like">
                    <path
                      id="Vector_81"
                      d="M99.92 306.32L106.14 309.92V293.89L99.92 290.3V306.32Z"
                      fill="#4399FF"
                    />
                    <path
                      id="Vector_82"
                      d="M106.14 293.91L99.92 290.31L104.96 287.4L111.43 291.02L106.14 293.91Z"
                      fill="#70B6FC"
                    />
                    <path
                      id="Vector_83"
                      d="M129.76 305.34C129.734 304.584 129.519 303.847 129.135 303.195C128.75 302.544 128.209 301.999 127.56 301.61L120.27 297.4L121.43 291.93V291.52C121.434 290.938 121.353 290.359 121.19 289.8C120.97 289.08 120.19 287.37 119.69 287.72L112.06 292.13C111.6 292.26 111.37 292.79 111.37 293.59V307C111.417 307.801 111.65 308.579 112.051 309.274C112.452 309.968 113.01 310.559 113.68 311L124.09 317C125.01 317.53 125.82 317.33 126.17 316.6L129.64 309.12C129.744 308.842 129.785 308.545 129.76 308.25V305.34Z"
                      fill="#FFCEA9"
                    />
                    <path
                      id="Vector_84"
                      d="M122.1 319.2L125.77 317.05L122.43 312.52L122.1 319.2Z"
                      fill="#FFCEA9"
                    />
                    <path
                      id="Vector_85"
                      d="M126.26 307.38C126.231 306.625 126.015 305.888 125.631 305.237C125.247 304.586 124.707 304.041 124.06 303.65L116.77 299.45L117.93 293.97V293.57C117.934 292.985 117.853 292.402 117.69 291.84C117.47 291.12 116.69 289.42 116.19 289.76L108.56 294.17C108.1 294.3 107.87 294.84 107.87 295.64V309C107.915 309.801 108.148 310.58 108.549 311.275C108.951 311.969 109.509 312.56 110.18 313L120.59 319C121.51 319.54 122.32 319.34 122.67 318.6L126.14 311.12C126.244 310.842 126.285 310.545 126.26 310.25V307.38Z"
                      fill="#EFBD9C"
                    />
                  </g>
                </g>
              </g>
              <defs>
                <linearGradient
                  id="paint0_linear"
                  x1="71.3095"
                  y1="360.263"
                  x2="78.9171"
                  y2="347.025"
                  gradientUnits="userSpaceOnUse"
                >
                  <stop offset="0.21" stop-color="white" stop-opacity="0" />
                  <stop offset="1" stop-color="white" stop-opacity="0.2" />
                </linearGradient>
              </defs>
            </svg>