<svg id="visual" viewBox="0 0 900 600" width="900" height="600" xmlns="http://www.w3.org/2000/svg" xmlns:xlink="http://www.w3.org/1999/xlink" version="1.1"><path d="M629 600L674 600L674 545L620 545L620 491L755 491L755 436L584 436L584 382L548 382L548 327L773 327L773 273L593 273L593 218L692 218L692 164L638 164L638 109L620 109L620 55L737 55L737 0L900 0L900 55L900 55L900 109L900 109L900 164L900 164L900 218L900 218L900 273L900 273L900 327L900 327L900 382L900 382L900 436L900 436L900 491L900 491L900 545L900 545L900 600L900 600Z" fill="#9d4bc1"></path><path d="M512 600L557 600L557 545L566 545L566 491L602 491L602 436L494 436L494 382L413 382L413 327L629 327L629 273L530 273L530 218L629 218L629 164L548 164L548 109L548 109L548 55L584 55L584 0L738 0L738 55L621 55L621 109L639 109L639 164L693 164L693 218L594 218L594 273L774 273L774 327L549 327L549 382L585 382L585 436L756 436L756 491L621 491L621 545L675 545L675 600L630 600Z" fill="#7c2ba0"></path><path d="M377 600L458 600L458 545L368 545L368 491L467 491L467 436L377 436L377 382L350 382L350 327L476 327L476 273L350 273L350 218L530 218L530 164L467 164L467 109L395 109L395 55L422 55L422 0L585 0L585 55L549 55L549 109L549 109L549 164L630 164L630 218L531 218L531 273L630 273L630 327L414 327L414 382L495 382L495 436L603 436L603 491L567 491L567 545L558 545L558 600L513 600Z" fill="#5c0381"></path><path d="M233 600L161 600L161 545L152 545L152 491L161 491L161 436L242 436L242 382L179 382L179 327L170 327L170 273L98 273L98 218L215 218L215 164L224 164L224 109L107 109L107 55L98 55L98 0L423 0L423 55L396 55L396 109L468 109L468 164L531 164L531 218L351 218L351 273L477 273L477 327L351 327L351 382L378 382L378 436L468 436L468 491L369 491L369 545L459 545L459 600L378 600Z" fill="#3d0063"></path><path d="M0 600L0 600L0 545L0 545L0 491L0 491L0 436L0 436L0 382L0 382L0 327L0 327L0 273L0 273L0 218L0 218L0 164L0 164L0 109L0 109L0 55L0 55L0 0L99 0L99 55L108 55L108 109L225 109L225 164L216 164L216 218L99 218L99 273L171 273L171 327L180 327L180 382L243 382L243 436L162 436L162 491L153 491L153 545L162 545L162 600L234 600Z" fill="#000000"></path></svg>