<svg width="569" height="476" viewBox="0 0 569 476" fill="none" xmlns="http://www.w3.org/2000/svg">
<g id="Group 7">
<g id="mobile">
<g id="Mobile">
<path id="Vector" opacity="0.4" d="M177.552 472.792L63.0625 416.746C53.3701 411.984 54.583 403.708 65.7804 398.222L342.334 262.853C353.565 257.367 370.468 256.777 380.161 261.52L494.65 317.566C504.343 322.328 503.13 330.614 491.932 336.09L215.378 471.469C204.181 476.945 187.244 477.545 177.552 472.792Z" fill="#D6D8E5"/>
<path id="Vector_2" d="M192.051 465.421L77.573 409.374C67.8694 404.613 69.0936 396.327 80.291 390.851L356.834 255.453C368.065 249.977 384.911 249.377 394.671 254.129L509.15 310.176C518.842 314.938 517.629 323.214 506.432 328.699L229.889 464.088C218.692 469.573 201.755 470.164 192.051 465.421Z" fill="#B1B4C4"/>
<path id="Vector_3" d="M71.0253 401.203V392.27L83.3907 396.222L71.0253 401.203Z" fill="#B1B4C4"/>
<path id="Vector_4" d="M515.697 317.909V309.319L505.87 314.69L515.697 317.909Z" fill="#B1B4C4"/>
<path id="Vector_5" d="M192.051 457.85L77.573 401.803C67.8694 397.041 69.0936 388.765 80.291 383.279L356.834 247.891C368.065 242.406 384.911 241.815 394.671 246.558L509.15 302.605C518.842 307.366 517.629 315.652 506.432 321.128L229.889 456.526C218.692 462.002 201.755 462.602 192.051 457.85Z" fill="#616E84"/>
<path id="Vector_6" d="M91.3866 413.29C91.9721 413.004 91.9716 412.073 91.3854 411.212C90.7993 410.351 89.8494 409.886 89.2639 410.173C88.6784 410.459 88.6789 411.39 89.2651 412.25C89.8513 413.111 90.8011 413.577 91.3866 413.29Z" fill="#757B89"/>
<path id="Vector_7" d="M96.8979 415.991C97.4834 415.704 97.4829 414.774 96.8967 413.913C96.3106 413.052 95.3608 412.587 94.7752 412.873C94.1897 413.16 94.1902 414.09 94.7764 414.951C95.3625 415.812 96.3124 416.278 96.8979 415.991Z" fill="#757B89"/>
<path id="Vector_8" d="M102.409 418.682C102.995 418.396 102.994 417.466 102.408 416.605C101.822 415.744 100.872 415.278 100.287 415.565C99.701 415.851 99.7015 416.782 100.288 417.643C100.874 418.504 101.824 418.969 102.409 418.682Z" fill="#757B89"/>
<path id="Vector_9" d="M107.916 421.387C108.502 421.1 108.501 420.17 107.915 419.309C107.329 418.448 106.379 417.982 105.794 418.269C105.208 418.556 105.209 419.486 105.795 420.347C106.381 421.208 107.331 421.673 107.916 421.387Z" fill="#757B89"/>
<path id="Vector_10" d="M155.239 444.545C155.825 444.258 155.824 443.328 155.238 442.467C154.652 441.606 153.702 441.141 153.117 441.427C152.531 441.714 152.532 442.644 153.118 443.505C153.704 444.366 154.654 444.832 155.239 444.545Z" fill="#757B89"/>
<path id="Vector_11" d="M160.741 447.25C161.326 446.964 161.326 446.034 160.74 445.173C160.154 444.312 159.204 443.846 158.618 444.133C158.033 444.419 158.033 445.35 158.619 446.211C159.205 447.072 160.155 447.537 160.741 447.25Z" fill="#757B89"/>
<path id="Vector_12" d="M166.252 449.942C166.838 449.655 166.837 448.725 166.251 447.864C165.665 447.003 164.715 446.537 164.129 446.824C163.544 447.111 163.544 448.041 164.131 448.902C164.717 449.763 165.667 450.228 166.252 449.942Z" fill="#757B89"/>
<path id="Vector_13" d="M171.769 452.641C172.355 452.355 172.354 451.424 171.768 450.563C171.182 449.703 170.232 449.237 169.646 449.524C169.061 449.81 169.061 450.741 169.648 451.602C170.234 452.462 171.184 452.928 171.769 452.641Z" fill="#757B89"/>
<path id="Vector_14" d="M138.142 437.069L123.014 429.65C122.483 429.332 122.048 428.911 121.746 428.423C121.443 427.934 121.281 427.392 121.273 426.841C121.273 425.755 122.048 425.26 123.014 425.726L138.142 433.145C138.673 433.464 139.108 433.885 139.41 434.373C139.713 434.861 139.875 435.403 139.883 435.955C139.827 437.041 139.052 437.536 138.142 437.069Z" fill="#757B89"/>
<path id="Vector_15" d="M481.049 339.195L466.966 346.09C466.078 346.518 465.348 346.09 465.348 345.052C465.359 344.538 465.51 344.034 465.791 343.58C466.072 343.125 466.474 342.732 466.966 342.433L481.049 335.547C481.937 335.109 482.656 335.547 482.656 336.576C482.647 337.088 482.498 337.592 482.219 338.047C481.94 338.501 481.54 338.894 481.049 339.195Z" fill="#757B89"/>
<path id="Vector_16" d="M459.486 349.747L445.402 356.642C444.515 357.08 443.785 356.642 443.785 355.604C443.797 355.092 443.949 354.59 444.23 354.137C444.511 353.684 444.912 353.293 445.402 352.994L459.486 346.099C460.373 345.661 461.092 346.099 461.092 347.137C461.084 347.649 460.935 348.151 460.656 348.605C460.377 349.058 459.976 349.449 459.486 349.747Z" fill="#757B89"/>
<path id="Vector_17" d="M192.051 456.478L77.573 400.432C67.8694 395.67 69.0936 387.394 80.291 381.908L356.834 246.52C368.065 241.034 384.911 240.434 394.671 245.186L509.15 301.233C518.842 305.995 517.629 314.271 506.432 319.757L229.889 455.145C218.692 460.631 201.755 461.221 192.051 456.478Z" fill="#20232D"/>
<path id="Vector_18" d="M496.863 303.471L452.163 281.567L452.062 281.624C446.772 284.205 438.214 284.205 432.969 281.624C427.724 279.043 427.691 274.843 432.969 272.262L433.081 272.205L388.382 250.301C381.643 246.977 370.592 246.977 363.797 250.301L94.4309 382.203C87.6922 385.527 87.6922 390.917 94.4309 394.241L202.934 447.364C209.729 450.688 220.736 450.688 227.519 447.364L496.863 315.5C503.646 312.176 503.646 306.795 496.863 303.471Z" fill="white"/>
<path id="Vector_19" opacity="0.5" d="M496.863 315.5L227.519 447.364C221.387 450.364 211.796 450.659 204.99 448.221C204.288 447.972 203.605 447.686 202.946 447.364L94.4309 394.279C92.9259 393.58 91.6248 392.604 90.6235 391.422C88.0629 388.346 89.332 384.689 94.4309 382.194L363.763 250.339C370.558 247.024 381.553 247.024 388.348 250.339L433.048 272.243H432.936C427.657 274.824 427.657 279.014 432.936 281.605C438.214 284.195 446.783 284.186 452.028 281.605L452.141 281.548L496.84 303.452C503.646 306.795 503.646 312.176 496.863 315.5Z" fill="url(#paint0_linear)"/>
<path id="Vector_20" d="M439.562 280.91C442.396 280.91 444.694 279.784 444.694 278.395C444.694 277.007 442.396 275.881 439.562 275.881C436.727 275.881 434.429 277.007 434.429 278.395C434.429 279.784 436.727 280.91 439.562 280.91Z" fill="#2B303F"/>
<path id="Vector_21" opacity="0.1" d="M438.012 279.138C437.832 279.083 437.677 278.982 437.567 278.849C437.457 278.716 437.398 278.558 437.398 278.395C437.398 278.233 437.457 278.075 437.567 277.942C437.677 277.809 437.832 277.708 438.012 277.653C438.484 277.45 439.005 277.345 439.534 277.345C440.063 277.345 440.584 277.45 441.056 277.653C441.241 277.704 441.402 277.803 441.516 277.936C441.631 278.07 441.692 278.231 441.692 278.395C441.692 278.56 441.631 278.721 441.516 278.855C441.402 278.988 441.241 279.087 441.056 279.138C440.584 279.341 440.063 279.446 439.534 279.446C439.005 279.446 438.484 279.341 438.012 279.138Z" fill="white"/>
</g>
<path id="Vector_22" d="M457.958 296.519L456.015 295.567L459.261 293.976L461.204 294.928L457.958 296.519Z" fill="#E9EAF2"/>
<path id="Vector_23" d="M460.553 297.786L458.61 296.833L463.147 294.614L465.09 295.567L460.553 297.786Z" fill="#E9EAF2"/>
<path id="Vector_24" d="M463.147 299.052L461.204 298.1L467.685 294.928L469.627 295.881L463.147 299.052Z" fill="#E9EAF2"/>
<path id="Vector_25" d="M465.741 300.328L463.798 299.376L472.873 294.928L474.816 295.881L465.741 300.328Z" fill="#E9EAF2"/>
<path id="Vector_26" d="M474.165 304.452L471.144 302.966L477.197 300.005L480.218 301.49L474.165 304.452Z" fill="#E9EAF2"/>
<path id="Vector_27" d="M478.208 306.423L475.176 304.947L481.229 301.985L484.25 303.462L478.208 306.423Z" fill="#E9EAF2"/>
<path id="Vector_28" d="M482.24 308.395L479.208 306.919L485.261 303.957L488.282 305.433L482.24 308.395Z" fill="#E9EAF2"/>
<path id="Vector_29" d="M355.632 279.31L341.717 272.491C339.785 271.538 340.032 269.91 342.256 268.824L355.093 262.539C356.231 261.997 357.503 261.691 358.807 261.645C360.11 261.598 361.408 261.813 362.595 262.272L376.511 269.081C378.431 270.034 378.195 271.672 375.971 272.757L363.134 279.043C361.995 279.581 360.723 279.886 359.421 279.932C358.118 279.979 356.82 279.765 355.632 279.31Z" fill="#E9EAF2"/>
<path id="Vector_30" d="M450.288 325.652L368.851 285.786C366.931 284.833 367.178 283.195 369.39 282.11L382.238 275.824C383.375 275.285 384.645 274.98 385.947 274.934C387.248 274.887 388.544 275.101 389.73 275.557L471.166 315.423C473.087 316.376 472.851 318.014 470.627 319.1L457.79 325.385C456.65 325.921 455.378 326.225 454.076 326.271C452.774 326.317 451.476 326.105 450.288 325.652Z" fill="#E9EAF2"/>
<path id="Vector_31" d="M327.442 293.109L313.527 286.291C311.606 285.338 311.842 283.71 314.066 282.624L326.903 276.338C328.041 275.797 329.313 275.491 330.617 275.444C331.92 275.398 333.218 275.613 334.405 276.072L348.321 282.853C350.241 283.805 350.005 285.443 347.781 286.529L334.944 292.814C333.808 293.357 332.537 293.667 331.235 293.718C329.932 293.769 328.633 293.561 327.442 293.109Z" fill="#E9EAF2"/>
<path id="Vector_32" d="M422.098 339.452L340.672 299.586C338.752 298.633 338.988 296.995 341.211 295.91L354.048 289.624C355.187 289.086 356.459 288.781 357.762 288.735C359.065 288.688 360.363 288.902 361.551 289.357L442.976 329.223C444.897 330.176 444.661 331.814 442.437 332.9L429.6 339.185C428.46 339.721 427.188 340.025 425.886 340.071C424.584 340.117 423.286 339.905 422.098 339.452Z" fill="#E9EAF2"/>
<g id="Group" opacity="0.6">
<path id="Vector_33" opacity="0.6" d="M299.263 306.909L285.337 300.09C283.416 299.138 283.652 297.509 285.876 296.424L298.724 290.138C299.86 289.597 301.13 289.291 302.432 289.244C303.734 289.198 305.03 289.413 306.215 289.871L320.142 296.681C322.062 297.633 321.815 299.271 319.603 300.357L306.754 306.662C305.616 307.198 304.345 307.499 303.044 307.542C301.742 307.585 300.447 307.368 299.263 306.909Z" fill="#E9EAF2"/>
<path id="Vector_34" opacity="0.6" d="M393.919 353.252L312.482 313.385C310.562 312.433 310.798 310.795 313.021 309.709L325.858 303.424C326.997 302.885 328.269 302.581 329.572 302.534C330.875 302.488 332.173 302.701 333.361 303.157L414.797 343.023C416.718 343.975 416.471 345.614 414.258 346.699L401.41 352.985C400.272 353.521 399.002 353.824 397.702 353.871C396.401 353.917 395.106 353.705 393.919 353.252Z" fill="#E9EAF2"/>
</g>
<path id="Vector_35" d="M271.073 320.709L257.192 313.89C255.271 312.938 255.518 311.309 257.731 310.224L270.579 303.929C271.717 303.391 272.987 303.088 274.289 303.043C275.59 302.998 276.885 303.214 278.07 303.671L292.008 310.471C293.928 311.424 293.693 313.062 291.469 314.147L278.531 320.443C277.398 320.977 276.134 321.279 274.839 321.326C273.544 321.372 272.255 321.161 271.073 320.709Z" fill="#E9EAF2"/>
<path id="Vector_36" d="M365.729 367.051L284.292 327.185C282.372 326.233 282.619 324.595 284.831 323.509L297.68 317.223C298.816 316.684 300.087 316.379 301.388 316.333C302.689 316.287 303.985 316.5 305.171 316.957L386.607 356.823C388.528 357.775 388.281 359.413 386.068 360.499L373.22 366.784C372.082 367.321 370.812 367.624 369.512 367.67C368.211 367.717 366.916 367.505 365.729 367.051Z" fill="#E9EAF2"/>
<path id="Vector_37" d="M242.883 334.509L228.968 327.69C227.047 326.738 227.283 325.109 229.507 324.023L242.344 317.728C243.484 317.191 244.756 316.887 246.059 316.843C247.362 316.798 248.659 317.013 249.847 317.471L263.762 324.281C265.682 325.233 265.446 326.871 263.223 327.957L250.386 334.28C249.243 334.813 247.969 335.111 246.666 335.15C245.364 335.19 244.068 334.97 242.883 334.509Z" fill="#E9EAF2"/>
<path id="Vector_38" d="M337.539 380.851L256.069 340.947C254.148 339.995 254.395 338.357 256.608 337.271L269.456 330.985C270.595 330.446 271.867 330.141 273.17 330.095C274.473 330.048 275.77 330.262 276.958 330.719L358.384 370.585C360.304 371.537 360.068 373.175 357.845 374.261L345.007 380.546C343.875 381.084 342.611 381.391 341.315 381.444C340.019 381.497 338.726 381.294 337.539 380.851Z" fill="#E9EAF2"/>
<g id="Group_2" opacity="0.6">
<path id="Vector_39" opacity="0.6" d="M214.693 348.309L200.778 341.49C198.857 340.537 199.093 338.909 201.317 337.823L214.154 331.528C215.294 330.99 216.566 330.687 217.869 330.642C219.172 330.598 220.469 330.813 221.657 331.271L235.572 338.09C237.504 339.042 237.256 340.68 235.033 341.766L222.196 348.052C221.056 348.588 219.783 348.891 218.48 348.936C217.178 348.981 215.88 348.766 214.693 348.309Z" fill="#E9EAF2"/>
<path id="Vector_40" opacity="0.6" d="M309.349 394.651L227.923 354.785C226.003 353.832 226.239 352.194 228.463 351.109L241.3 344.823C242.439 344.284 243.711 343.98 245.013 343.934C246.316 343.887 247.614 344.101 248.802 344.556L330.194 384.422C332.114 385.375 331.878 387.013 329.655 388.098L316.817 394.384C315.682 394.916 314.416 395.217 313.12 395.263C311.824 395.309 310.533 395.1 309.349 394.651Z" fill="#E9EAF2"/>
</g>
<path id="Vector_41" d="M186.514 362.108L172.588 355.289C170.667 354.337 170.915 352.709 173.127 351.623L185.975 345.328C187.113 344.79 188.384 344.487 189.685 344.442C190.986 344.398 192.281 344.613 193.467 345.071L207.393 351.88C209.314 352.832 209.066 354.47 206.854 355.556L194.006 361.842C192.869 362.381 191.599 362.686 190.298 362.732C188.996 362.778 187.7 362.565 186.514 362.108Z" fill="#E9EAF2"/>
<path id="Vector_42" d="M281.17 408.451L199.733 368.565C197.813 367.613 198.049 365.975 200.273 364.889L213.11 358.604C214.249 358.065 215.521 357.761 216.823 357.714C218.126 357.668 219.424 357.881 220.612 358.337L302.049 398.203C303.969 399.155 303.722 400.793 301.509 401.879L288.639 408.184C287.504 408.717 286.238 409.019 284.941 409.065C283.645 409.111 282.354 408.901 281.17 408.451Z" fill="#E9EAF2"/>
<g id="Group_3" opacity="0.6">
<path id="Vector_43" opacity="0.6" d="M158.358 375.908L144.432 369.089C142.511 368.137 142.758 366.508 144.971 365.423L157.819 359.128C158.959 358.59 160.231 358.287 161.534 358.242C162.837 358.197 164.134 358.412 165.321 358.87L179.203 365.708C181.124 366.661 180.888 368.299 178.664 369.384L165.816 375.67C164.681 376.2 163.415 376.498 162.12 376.539C160.825 376.58 159.537 376.364 158.358 375.908Z" fill="#E9EAF2"/>
<path id="Vector_44" opacity="0.6" d="M252.98 422.25L171.543 382.384C169.623 381.432 169.87 379.794 172.083 378.708L184.931 372.423C186.068 371.883 187.338 371.579 188.639 371.532C189.94 371.486 191.236 371.7 192.422 372.156L273.859 412.022C275.779 412.974 275.543 414.612 273.319 415.698L260.471 421.984C259.333 422.52 258.063 422.823 256.763 422.869C255.462 422.916 254.167 422.704 252.98 422.25Z" fill="#E9EAF2"/>
</g>
<g id="Group_4" opacity="0.6">
<path id="Vector_45" opacity="0.6" d="M130.134 389.708L116.219 382.851C114.299 381.899 114.535 380.27 116.758 379.184L129.595 372.889C130.735 372.352 132.007 372.048 133.31 372.004C134.614 371.959 135.911 372.174 137.098 372.632L151.013 379.442C152.934 380.394 152.698 382.032 150.474 383.118L137.637 389.403C136.501 389.948 135.231 390.259 133.928 390.312C132.625 390.365 131.326 390.158 130.134 389.708Z" fill="#E9EAF2"/>
<path id="Vector_46" opacity="0.6" d="M224.79 436.05L143.365 396.184C141.433 395.232 141.68 393.603 143.893 392.518L156.741 386.232C157.88 385.693 159.152 385.388 160.455 385.342C161.758 385.295 163.055 385.509 164.243 385.965L245.669 425.831C247.589 426.784 247.353 428.422 245.129 429.507L232.292 435.793C231.152 436.328 229.879 436.63 228.577 436.674C227.275 436.719 225.978 436.505 224.79 436.05Z" fill="#E9EAF2"/>
</g>
</g>
<g id="left-mail">
<path id="Vector_47" d="M80.4931 176.245V223.292C80.4919 223.617 80.4235 223.939 80.2909 224.244C80.2186 224.438 80.1246 224.627 80.0102 224.806C79.6743 225.378 79.162 225.861 78.5277 226.206L3.84102 262.777C3.63114 262.914 3.37776 262.994 3.11354 263.008C2.84931 263.021 2.58634 262.967 2.35852 262.853C2.2289 262.771 2.12483 262.663 2.05528 262.539C1.92953 262.313 1.86799 262.065 1.87558 261.815V214.768C1.87679 214.445 1.93742 214.123 2.05528 213.816C2.13615 213.613 2.23373 213.416 2.34729 213.225C2.6908 212.655 3.20615 212.172 3.84102 211.825L78.5052 175.235C78.7185 175.099 78.9752 175.021 79.2417 175.011C79.5082 175.001 79.7721 175.059 79.9989 175.178C80.1227 175.262 80.2258 175.365 80.3022 175.483C80.4376 175.72 80.5031 175.981 80.4931 176.245Z" fill="#DDB545"/>
<path id="Vector_48" d="M2.50455 262.891L5.3797 264.234L5.5594 259.91L2.50455 262.891Z" fill="#DDB545"/>
<path id="Vector_49" d="M79.7968 175.121L82.8966 176.559L78.5277 180.997L79.7968 175.121Z" fill="#DDB545"/>
<path id="Vector_50" d="M83.3907 177.597V224.644C83.3838 224.969 83.3155 225.29 83.1886 225.596C83.1114 225.789 83.0176 225.977 82.9078 226.158C82.572 226.73 82.0596 227.214 81.4253 227.558L6.73865 264.11C6.52647 264.244 6.27191 264.321 6.00772 264.331C5.74352 264.341 5.48178 264.284 5.25615 264.167C5.12934 264.086 5.02569 263.982 4.95291 263.862C4.81905 263.639 4.75341 263.39 4.76198 263.139V216.092C4.76141 215.767 4.82598 215.445 4.95291 215.139C5.27365 214.335 5.90217 213.644 6.73865 213.178L81.4028 176.626C81.6145 176.492 81.8683 176.414 82.1322 176.402C82.396 176.39 82.6581 176.445 82.8854 176.559C83.015 176.642 83.119 176.749 83.1886 176.873C83.3263 177.097 83.3959 177.345 83.3907 177.597Z" fill="#FFD44D"/>
<path id="Vector_51" opacity="0.12" d="M5.08768 264.339L44.0707 220.177L82.9864 226.006V230.673L4.76198 268.967L5.08768 264.339Z" fill="black"/>
<path id="Vector_52" opacity="0.05" d="M44.0707 220.177L5.1663 214.73L1.58358 213.759L0 267.415L5.25614 264.167L44.0707 220.177Z" fill="black"/>
<path id="Vector_53" opacity="0.05" d="M44.0707 220.177L82.9864 176.626L86.5691 172.159L88.1527 224.254L82.9864 226.006L44.0707 220.177Z" fill="black"/>
</g>
<g id="right-mail">
<path id="Vector_54" d="M560.038 59.2657V114.351C560.028 114.727 559.949 115.1 559.802 115.455C559.708 115.679 559.599 115.899 559.476 116.112C559.082 116.782 558.48 117.349 557.735 117.75L470.279 160.607C470.029 160.762 469.73 160.852 469.42 160.863C469.111 160.875 468.804 160.809 468.538 160.674C468.387 160.578 468.264 160.454 468.179 160.312C468.028 160.048 467.955 159.757 467.965 159.464V104.332C467.971 103.968 468.047 103.608 468.19 103.265C468.281 103.029 468.394 102.8 468.527 102.579C468.922 101.904 469.528 101.335 470.279 100.932L557.713 58.0943C557.96 57.935 558.259 57.8426 558.569 57.829C558.88 57.8154 559.188 57.8813 559.454 58.0181C559.607 58.1112 559.731 58.2357 559.813 58.38C559.971 58.6556 560.048 58.9595 560.038 59.2657Z" fill="#DDB545"/>
<path id="Vector_55" d="M468.706 160.721L472.076 162.293L472.289 157.226L468.706 160.721Z" fill="#DDB545"/>
<path id="Vector_56" d="M559.218 57.9324L562.857 59.6276L557.735 64.818L559.218 57.9324Z" fill="#DDB545"/>
<path id="Vector_57" d="M563.429 60.8466V115.931C563.42 116.308 563.34 116.681 563.194 117.036C563.099 117.26 562.991 117.48 562.868 117.693C562.467 118.359 561.867 118.924 561.127 119.331L473.671 162.188C473.421 162.344 473.122 162.434 472.812 162.446C472.502 162.458 472.195 162.391 471.93 162.254C471.776 162.161 471.652 162.037 471.57 161.893C471.42 161.629 471.347 161.338 471.357 161.045V105.913C471.363 105.549 471.439 105.189 471.582 104.846C471.668 104.609 471.781 104.379 471.919 104.16C472.314 103.485 472.92 102.915 473.671 102.513L561.105 59.7037C561.355 59.5449 561.655 59.4528 561.967 59.4392C562.279 59.4256 562.589 59.4912 562.857 59.6276C563.007 59.7234 563.13 59.8472 563.216 59.9895C563.365 60.2572 563.438 60.5507 563.429 60.8466Z" fill="#FFD44D"/>
<path id="Vector_58" opacity="0.12" d="M471.716 162.407L517.393 110.693L562.958 117.522V122.989L471.357 167.835L471.716 162.407Z" fill="black"/>
<path id="Vector_59" opacity="0.05" d="M517.393 110.693L471.829 104.322L467.64 103.179L465.775 166.016L471.93 162.216L517.393 110.693Z" fill="black"/>
<path id="Vector_60" opacity="0.05" d="M517.393 110.693L562.958 59.7038L567.147 54.4658L569 115.474L562.958 117.522L517.393 110.693Z" fill="black"/>
</g>
<g id="main-mail">
<path id="Vector_61" d="M368.986 42.6469C368.856 42.3755 368.638 42.1409 368.357 41.9707C367.794 41.7218 367.187 41.5514 366.56 41.466L271.713 18.3521L176.867 134.341C176.204 134.966 175.638 135.66 175.182 136.407C174.893 136.875 174.648 137.363 174.452 137.864C174.161 138.598 174.005 139.366 173.992 140.141V257.139C173.976 257.763 174.13 258.382 174.441 258.948C174.624 259.248 174.885 259.509 175.205 259.71C175.765 260.002 176.416 260.145 177.073 260.119C177.73 260.094 178.362 259.901 178.889 259.567L364.549 168.673C366.608 167.503 368.151 165.789 368.941 163.797C369.259 163.042 369.426 162.247 369.435 161.445V44.4469C369.452 43.8254 369.298 43.2091 368.986 42.6469Z" fill="#DDB545"/>
<path id="Vector_62" d="M181.168 262.71L175.205 259.662L184.403 254.043L181.168 262.71Z" fill="#DDB545"/>
<path id="Vector_63" d="M368.099 41.8373L373.927 44.7706L365.785 49.8372L368.099 41.8373Z" fill="#CEB95F"/>
<path id="Vector_64" d="M271.713 18.3521L277.408 21.2568L373.927 44.7611L369.132 42.3517C367.279 41.6672 365.364 41.113 363.404 40.6945L271.713 18.3521Z" fill="#C19B3D"/>
<path id="Vector_65" d="M375.118 47.3516V164.302C375.103 165.101 374.936 165.892 374.624 166.645C374.43 167.123 374.194 167.588 373.916 168.035C373.083 169.459 371.81 170.663 370.232 171.521L184.594 262.415C184.068 262.753 183.433 262.948 182.774 262.975C182.115 263.002 181.461 262.86 180.899 262.567C180.582 262.362 180.325 262.098 180.146 261.796C179.83 261.235 179.676 260.618 179.697 259.996V143.036C179.711 142.261 179.866 141.494 180.158 140.76C180.356 140.259 180.6 139.771 180.888 139.303C181.727 137.871 183.013 136.663 184.605 135.807L370.199 44.9326L367.032 46.7802C368.514 46.0659 373.029 44.1993 373.927 44.7707C374.244 44.9759 374.502 45.2397 374.68 45.5421C374.994 46.107 375.144 46.7275 375.118 47.3516Z" fill="#FFD44D"/>
<g id="Group_5">
<path id="Vector_66" opacity="0.12" d="M180.899 262.567L277.408 153.188L374.152 167.683V179.283L179.686 274.481L180.899 262.567Z" fill="black"/>
<path id="Vector_67" opacity="0.05" d="M277.408 153.188L180.674 139.655L171.791 137.236L167.837 270.624L180.899 262.567L277.408 153.188Z" fill="black"/>
<path id="Vector_68" opacity="0.05" d="M277.205 153.036L373.939 44.7898L382.822 33.6757L386.776 163.188L373.939 167.531L277.205 153.036Z" fill="black"/>
</g>
<path id="Vector_69" d="M180.876 139.303L277.408 21.2568L373.927 44.7707L277.408 153.188L180.876 139.303Z" fill="#FFD44D"/>
<path id="Vector_70" opacity="0.3" d="M373.927 44.7707L352.083 69.3132L277.408 153.188L202.743 142.445L180.876 139.303L202.743 112.56L256.54 46.7707L277.408 21.2568L298.275 26.3425L352.083 39.4565L373.927 44.7707Z" fill="black"/>
<path id="Vector_71" d="M352.083 0V69.3132L277.408 153.188L202.743 142.445V73.1131L352.083 0Z" fill="#FAFBFF"/>
<path id="Vector_72" d="M252.407 103.57L215.558 121.608V85.5319L252.407 67.4846V103.57Z" fill="#E9EAF2"/>
<path id="Vector_73" d="M295.838 82.3034L258.989 100.351V64.2656L295.838 46.2183V82.3034Z" fill="#E9EAF2"/>
<path id="Vector_74" d="M339.268 61.0466L302.408 79.0939V43.0088L339.268 24.9614V61.0466Z" fill="#E9EAF2"/>
<path id="Vector_75" d="M339.268 76.0274L215.558 136.588V130.312L339.268 69.7418V76.0274Z" fill="#E9EAF2"/>
<path id="Vector_76" d="M320.838 92.2937V98.5793L225.262 145.369L215.547 144.531V143.845L320.838 92.2937Z" fill="#E9EAF2"/>
<path id="Vector_77" d="M302.408 113.884V120.17L246.062 147.75L234.426 147.169L302.408 113.884Z" fill="#E9EAF2"/>
<path id="Vector_78" d="M292.716 132.16V135.998L288.852 140.331L265.907 151.569L255.923 150.179L292.716 132.16Z" fill="#E9EAF2"/>
</g>
</g>
<defs>
<linearGradient id="paint0_linear" x1="295.647" y1="449.859" x2="295.647" y2="247.853" gradientUnits="userSpaceOnUse">
<stop offset="0.21" stop-color="white" stop-opacity="0"/>
<stop offset="1" stop-color="white" stop-opacity="0.2"/>
</linearGradient>
</defs>
</svg>
