<svg width="263" height="269" viewBox="0 0 263 269" fill="none" xmlns="http://www.w3.org/2000/svg">
<g id="Group 2">
<g id="mobile">
<g id="Mobile">
<path id="Vector" opacity="0.4" d="M82.0671 266.997L29.1484 235.346C24.6684 232.657 25.229 227.983 30.4046 224.885L158.232 148.439C163.423 145.341 171.236 145.008 175.716 147.686L228.634 179.337C233.114 182.026 232.554 186.705 227.378 189.798L99.551 266.249C94.3754 269.342 86.5471 269.68 82.0671 266.997Z" fill="#D6D8E5"/>
<path id="Vector_2" d="M88.7689 262.834L35.8554 231.183C31.3702 228.494 31.936 223.815 37.1116 220.722L164.934 144.26C170.125 141.168 177.912 140.829 182.423 143.513L235.336 175.163C239.816 177.853 239.256 182.526 234.08 185.624L106.258 262.081C101.082 265.179 93.2541 265.512 88.7689 262.834Z" fill="#B1B4C4"/>
<path id="Vector_3" d="M32.8289 226.569V221.524L38.5444 223.756L32.8289 226.569Z" fill="#B1B4C4"/>
<path id="Vector_4" d="M238.363 179.531V174.679L233.82 177.713L238.363 179.531Z" fill="#B1B4C4"/>
<path id="Vector_5" d="M88.7689 258.558L35.8554 226.907C31.3702 224.218 31.936 219.545 37.1116 216.447L164.934 139.99C170.125 136.892 177.912 136.559 182.423 139.237L235.336 170.888C239.816 173.577 239.256 178.256 234.08 181.348L106.258 257.811C101.082 260.903 93.2541 261.242 88.7689 258.558Z" fill="#616E84"/>
<path id="Vector_6" d="M42.2402 233.395C42.5108 233.233 42.5106 232.707 42.2397 232.221C41.9687 231.735 41.5297 231.472 41.2591 231.634C40.9884 231.796 40.9887 232.321 41.2596 232.807C41.5305 233.294 41.9696 233.556 42.2402 233.395Z" fill="#757B89"/>
<path id="Vector_7" d="M44.7876 234.92C45.0582 234.758 45.058 234.232 44.787 233.746C44.5161 233.26 44.0771 232.997 43.8064 233.159C43.5358 233.321 43.536 233.846 43.807 234.333C44.0779 234.819 44.5169 235.082 44.7876 234.92Z" fill="#757B89"/>
<path id="Vector_8" d="M47.335 236.44C47.6056 236.278 47.6054 235.752 47.3345 235.266C47.0635 234.78 46.6245 234.517 46.3539 234.679C46.0832 234.841 46.0835 235.366 46.3544 235.852C46.6253 236.339 47.0644 236.601 47.335 236.44Z" fill="#757B89"/>
<path id="Vector_9" d="M49.8805 237.967C50.1511 237.805 50.1509 237.279 49.8799 236.793C49.609 236.307 49.17 236.044 48.8993 236.206C48.6287 236.368 48.6289 236.893 48.8999 237.379C49.1708 237.866 49.6098 238.129 49.8805 237.967Z" fill="#757B89"/>
<path id="Vector_10" d="M71.7538 251.045C72.0244 250.883 72.0242 250.358 71.7533 249.871C71.4823 249.385 71.0433 249.122 70.7727 249.284C70.502 249.446 70.5023 249.971 70.7732 250.458C71.0442 250.944 71.4832 251.207 71.7538 251.045Z" fill="#757B89"/>
<path id="Vector_11" d="M74.2967 252.573C74.5674 252.411 74.5671 251.885 74.2962 251.399C74.0253 250.913 73.5862 250.65 73.3156 250.812C73.045 250.974 73.0452 251.499 73.3161 251.985C73.5871 252.472 74.0261 252.735 74.2967 252.573Z" fill="#757B89"/>
<path id="Vector_12" d="M76.8441 254.092C77.1147 253.931 77.1145 253.405 76.8435 252.919C76.5726 252.433 76.1336 252.17 75.863 252.332C75.5923 252.494 75.5926 253.019 75.8635 253.505C76.1344 253.991 76.5734 254.254 76.8441 254.092Z" fill="#757B89"/>
<path id="Vector_13" d="M79.3941 255.617C79.6648 255.455 79.6645 254.93 79.3936 254.443C79.1227 253.957 78.6836 253.694 78.413 253.856C78.1424 254.018 78.1426 254.544 78.4135 255.03C78.6845 255.516 79.1235 255.779 79.3941 255.617Z" fill="#757B89"/>
<path id="Vector_14" d="M63.8513 246.823L56.8588 242.633C56.6134 242.453 56.4125 242.216 56.2727 241.94C56.1328 241.664 56.058 241.358 56.0542 241.047V241.047C56.0542 240.434 56.4124 240.154 56.8588 240.417L63.8513 244.607C64.0968 244.787 64.2976 245.025 64.4375 245.3C64.5773 245.576 64.6522 245.882 64.656 246.194V246.194C64.63 246.807 64.2718 247.086 63.8513 246.823Z" fill="#757B89"/>
<path id="Vector_15" d="M222.348 191.551L215.838 195.445C215.428 195.687 215.091 195.445 215.091 194.859C215.096 194.569 215.166 194.284 215.295 194.027C215.425 193.77 215.611 193.549 215.838 193.379L222.348 189.491C222.758 189.244 223.09 189.491 223.09 190.072C223.086 190.361 223.017 190.646 222.888 190.903C222.76 191.159 222.574 191.381 222.348 191.551V191.551Z" fill="#757B89"/>
<path id="Vector_16" d="M212.381 197.51L205.871 201.404C205.461 201.651 205.124 201.404 205.124 200.818C205.129 200.529 205.2 200.245 205.329 199.989C205.459 199.734 205.645 199.513 205.871 199.344L212.381 195.45C212.791 195.203 213.123 195.45 213.123 196.036C213.12 196.325 213.051 196.609 212.922 196.865C212.793 197.121 212.608 197.342 212.381 197.51V197.51Z" fill="#757B89"/>
<path id="Vector_17" d="M88.7689 257.784L35.8554 226.133C31.3702 223.444 31.936 218.77 37.1116 215.672L164.934 139.215C170.125 136.118 177.912 135.779 182.423 138.462L235.336 170.113C239.816 172.802 239.256 177.476 234.08 180.574L106.258 257.031C101.082 260.129 93.2541 260.462 88.7689 257.784Z" fill="#20232D"/>
<path id="Vector_18" d="M229.657 171.377L208.996 159.007L208.95 159.04C206.505 160.497 202.549 160.497 200.125 159.04C197.7 157.582 197.685 155.21 200.125 153.753L200.176 153.72L179.516 141.351C176.401 139.474 171.293 139.474 168.152 141.351L43.6473 215.839C40.5326 217.716 40.5326 220.76 43.6473 222.637L93.7992 252.637C96.9398 254.514 102.027 254.514 105.163 252.637L229.657 178.17C232.793 176.293 232.793 173.254 229.657 171.377Z" fill="white"/>
<path id="Vector_19" opacity="0.5" d="M229.657 178.17L105.163 252.637C102.328 254.331 97.895 254.498 94.7491 253.121C94.4247 252.98 94.1092 252.818 93.8043 252.637L43.6473 222.659C42.9516 222.264 42.3503 221.712 41.8875 221.045C40.7039 219.308 41.2905 217.243 43.6473 215.834L168.137 141.372C171.277 139.5 176.359 139.5 179.5 141.372L200.161 153.742H200.109C197.669 155.199 197.669 157.566 200.109 159.029C202.549 160.492 206.51 160.486 208.934 159.029L208.986 158.996L229.647 171.366C232.793 173.254 232.793 176.293 229.657 178.17Z" fill="url(#paint0_linear)"/>
<path id="Vector_20" d="M203.172 158.636C204.482 158.636 205.544 158 205.544 157.216C205.544 156.432 204.482 155.796 203.172 155.796C201.862 155.796 200.799 156.432 200.799 157.216C200.799 158 201.862 158.636 203.172 158.636Z" fill="#2B303F"/>
<path id="Vector_21" opacity="0.1" d="M202.455 157.636C202.372 157.604 202.301 157.547 202.25 157.472C202.199 157.397 202.172 157.308 202.172 157.216C202.172 157.125 202.199 157.035 202.25 156.96C202.301 156.885 202.372 156.828 202.455 156.797C202.673 156.682 202.914 156.623 203.159 156.623C203.403 156.623 203.644 156.682 203.862 156.797C203.948 156.826 204.022 156.882 204.075 156.957C204.128 157.032 204.157 157.123 204.157 157.216C204.157 157.309 204.128 157.4 204.075 157.476C204.022 157.551 203.948 157.607 203.862 157.636C203.644 157.75 203.403 157.81 203.159 157.81C202.914 157.81 202.673 157.75 202.455 157.636V157.636Z" fill="white"/>
</g>
<path id="Vector_22" d="M211.675 167.451L210.777 166.913L212.277 166.015L213.175 166.553L211.675 167.451Z" fill="#E9EAF2"/>
<path id="Vector_23" d="M212.874 168.166L211.976 167.629L214.073 166.375L214.971 166.913L212.874 168.166Z" fill="#E9EAF2"/>
<path id="Vector_24" d="M214.073 168.882L213.175 168.344L216.17 166.553L217.069 167.091L214.073 168.882Z" fill="#E9EAF2"/>
<path id="Vector_25" d="M215.272 169.602L214.374 169.065L218.569 166.553L219.467 167.091L215.272 169.602Z" fill="#E9EAF2"/>
<path id="Vector_26" d="M219.166 171.931L217.769 171.092L220.567 169.419L221.964 170.258L219.166 171.931Z" fill="#E9EAF2"/>
<path id="Vector_27" d="M221.035 173.044L219.633 172.211L222.431 170.538L223.827 171.372L221.035 173.044Z" fill="#E9EAF2"/>
<path id="Vector_28" d="M222.898 174.158L221.497 173.324L224.295 171.651L225.691 172.485L222.898 174.158Z" fill="#E9EAF2"/>
<path id="Vector_29" d="M164.378 157.733L157.946 153.882C157.053 153.344 157.168 152.424 158.196 151.811L164.129 148.262C164.655 147.956 165.243 147.783 165.846 147.757C166.448 147.731 167.048 147.852 167.597 148.111L174.029 151.956C174.916 152.494 174.807 153.419 173.779 154.032L167.846 157.582C167.319 157.886 166.732 158.058 166.129 158.084C165.527 158.11 164.927 157.99 164.378 157.733V157.733Z" fill="#E9EAF2"/>
<path id="Vector_30" d="M208.129 183.903L170.488 161.39C169.601 160.852 169.715 159.927 170.737 159.314L176.676 155.764C177.201 155.46 177.789 155.288 178.39 155.261C178.991 155.235 179.59 155.356 180.139 155.614L217.78 178.127C218.667 178.665 218.558 179.59 217.531 180.203L211.597 183.752C211.07 184.055 210.482 184.227 209.88 184.253C209.278 184.279 208.679 184.159 208.129 183.903V183.903Z" fill="#E9EAF2"/>
<path id="Vector_31" d="M151.348 165.526L144.917 161.675C144.029 161.137 144.138 160.217 145.166 159.604L151.099 156.055C151.625 155.749 152.213 155.576 152.816 155.55C153.418 155.524 154.018 155.645 154.567 155.904L160.999 159.733C161.886 160.271 161.777 161.196 160.75 161.809L154.816 165.359C154.291 165.666 153.704 165.84 153.101 165.869C152.499 165.898 151.899 165.781 151.348 165.526V165.526Z" fill="#E9EAF2"/>
<path id="Vector_32" d="M195.1 191.696L157.464 169.183C156.576 168.645 156.685 167.72 157.713 167.107L163.646 163.557C164.173 163.253 164.761 163.081 165.363 163.055C165.965 163.029 166.565 163.149 167.114 163.407L204.75 185.92C205.638 186.458 205.529 187.383 204.501 187.996L198.567 191.546C198.04 191.848 197.453 192.02 196.851 192.046C196.249 192.072 195.649 191.952 195.1 191.696V191.696Z" fill="#E9EAF2"/>
<g id="Group" opacity="0.6">
<path id="Vector_33" opacity="0.6" d="M138.324 173.319L131.887 169.468C130.999 168.93 131.108 168.01 132.136 167.397L138.075 163.848C138.6 163.542 139.187 163.369 139.788 163.343C140.39 163.317 140.989 163.438 141.537 163.697L147.974 167.542C148.862 168.08 148.748 169.005 147.725 169.618L141.786 173.179C141.26 173.482 140.673 173.652 140.071 173.676C139.47 173.701 138.871 173.578 138.324 173.319V173.319Z" fill="#E9EAF2"/>
<path id="Vector_34" opacity="0.6" d="M182.075 199.489L144.434 176.976C143.546 176.438 143.655 175.513 144.683 174.9L150.616 171.35C151.143 171.046 151.731 170.874 152.333 170.848C152.935 170.822 153.535 170.942 154.084 171.2L191.725 193.713C192.613 194.251 192.499 195.176 191.476 195.789L185.537 199.339C185.012 199.641 184.425 199.813 183.823 199.839C183.222 199.865 182.624 199.745 182.075 199.489V199.489Z" fill="#E9EAF2"/>
</g>
<path id="Vector_35" d="M125.294 181.112L118.878 177.261C117.99 176.723 118.104 175.803 119.127 175.19L125.066 171.635C125.591 171.332 126.179 171.16 126.78 171.135C127.382 171.11 127.98 171.232 128.528 171.49L134.97 175.33C135.858 175.868 135.749 176.793 134.721 177.406L128.741 180.961C128.217 181.263 127.633 181.434 127.035 181.46C126.436 181.486 125.84 181.367 125.294 181.112V181.112Z" fill="#E9EAF2"/>
<path id="Vector_36" d="M169.045 207.282L131.404 184.769C130.516 184.231 130.63 183.306 131.653 182.693L137.592 179.143C138.117 178.839 138.704 178.667 139.306 178.641C139.907 178.614 140.506 178.735 141.054 178.993L178.695 201.506C179.583 202.044 179.469 202.969 178.446 203.582L172.508 207.132C171.982 207.434 171.395 207.606 170.794 207.632C170.192 207.658 169.594 207.538 169.045 207.282V207.282Z" fill="#E9EAF2"/>
<path id="Vector_37" d="M112.264 188.905L105.832 185.054C104.945 184.516 105.054 183.597 106.081 182.983L112.015 179.428C112.542 179.125 113.13 178.953 113.732 178.928C114.334 178.903 114.934 179.025 115.483 179.283L121.914 183.129C122.802 183.666 122.693 184.591 121.665 185.205L115.732 188.776C115.204 189.076 114.615 189.245 114.013 189.267C113.411 189.29 112.812 189.165 112.264 188.905V188.905Z" fill="#E9EAF2"/>
<path id="Vector_38" d="M156.015 215.075L118.359 192.54C117.471 192.003 117.585 191.078 118.608 190.465L124.546 186.915C125.073 186.61 125.661 186.438 126.263 186.412C126.865 186.386 127.465 186.507 128.014 186.764L165.65 209.278C166.538 209.815 166.429 210.74 165.401 211.354L159.467 214.903C158.944 215.207 158.36 215.38 157.761 215.41C157.162 215.44 156.564 215.325 156.015 215.075V215.075Z" fill="#E9EAF2"/>
<g id="Group_2" opacity="0.6">
<path id="Vector_39" opacity="0.6" d="M99.2343 196.698L92.8025 192.847C91.9148 192.309 92.0238 191.39 93.0516 190.776L98.9851 187.221C99.5119 186.918 100.1 186.747 100.702 186.721C101.305 186.696 101.904 186.818 102.453 187.076L108.885 190.927C109.778 191.465 109.663 192.39 108.636 193.003L102.702 196.553C102.175 196.856 101.587 197.027 100.985 197.052C100.383 197.077 99.7831 196.956 99.2343 196.698Z" fill="#E9EAF2"/>
<path id="Vector_40" opacity="0.6" d="M142.985 222.868L105.35 200.355C104.462 199.817 104.571 198.892 105.599 198.279L111.532 194.729C112.059 194.425 112.647 194.253 113.249 194.227C113.851 194.201 114.451 194.321 115 194.579L152.62 217.092C153.508 217.63 153.399 218.555 152.371 219.168L146.438 222.718C145.913 223.018 145.328 223.188 144.729 223.214C144.13 223.24 143.533 223.122 142.985 222.868V222.868Z" fill="#E9EAF2"/>
</g>
<path id="Vector_41" d="M86.2097 204.491L79.7726 200.64C78.885 200.102 78.9992 199.183 80.0218 198.569L85.9605 195.014C86.4863 194.711 87.0736 194.54 87.6751 194.514C88.2765 194.489 88.8752 194.611 89.423 194.869L95.8601 198.715C96.7478 199.253 96.6335 200.178 95.6109 200.791L89.6722 204.34C89.1468 204.645 88.5597 204.817 87.9583 204.843C87.3568 204.869 86.7579 204.749 86.2097 204.491V204.491Z" fill="#E9EAF2"/>
<path id="Vector_42" d="M129.961 230.661L92.3197 208.137C91.432 207.6 91.541 206.674 92.5689 206.061L98.5024 202.512C99.0288 202.208 99.6167 202.036 100.219 202.009C100.821 201.983 101.421 202.104 101.97 202.361L139.611 224.874C140.499 225.412 140.385 226.337 139.362 226.95L133.413 230.511C132.888 230.812 132.303 230.982 131.704 231.008C131.105 231.034 130.508 230.916 129.961 230.661V230.661Z" fill="#E9EAF2"/>
<g id="Group_3" opacity="0.6">
<path id="Vector_43" opacity="0.6" d="M73.1954 212.284L66.7584 208.433C65.8707 207.895 65.9849 206.976 67.0075 206.363L72.9462 202.808C73.473 202.504 74.0611 202.333 74.6634 202.307C75.2657 202.282 75.8653 202.404 76.4139 202.662L82.8302 206.524C83.7179 207.062 83.6089 207.987 82.581 208.6L76.6423 212.15C76.1177 212.449 75.5327 212.617 74.9343 212.64C74.3358 212.663 73.7403 212.541 73.1954 212.284Z" fill="#E9EAF2"/>
<path id="Vector_44" opacity="0.6" d="M116.931 238.454L79.2899 215.941C78.4022 215.403 78.5164 214.478 79.539 213.865L85.4777 210.316C86.0031 210.011 86.5902 209.839 87.1916 209.813C87.7931 209.787 88.3921 209.907 88.9402 210.165L126.581 232.678C127.469 233.216 127.36 234.141 126.332 234.754L120.393 238.304C119.868 238.607 119.281 238.778 118.679 238.804C118.078 238.83 117.48 238.71 116.931 238.454V238.454Z" fill="#E9EAF2"/>
</g>
<g id="Group_4" opacity="0.6">
<path id="Vector_45" opacity="0.6" d="M60.15 220.077L53.7182 216.205C52.8305 215.667 52.9395 214.747 53.9673 214.134L59.9009 210.579C60.4276 210.275 61.0157 210.104 61.618 210.079C62.2203 210.054 62.8199 210.175 63.3685 210.434L69.8004 214.279C70.6881 214.817 70.5791 215.742 69.5512 216.355L63.6177 219.905C63.0929 220.212 62.5058 220.388 61.9036 220.418C61.3014 220.448 60.7008 220.331 60.15 220.077V220.077Z" fill="#E9EAF2"/>
<path id="Vector_46" opacity="0.6" d="M103.901 246.247L66.2652 223.734C65.3723 223.196 65.4865 222.277 66.5092 221.664L72.4479 218.114C72.9742 217.809 73.5621 217.637 74.1644 217.611C74.7667 217.585 75.3665 217.706 75.9156 217.963L113.552 240.477C114.439 241.014 114.33 241.939 113.302 242.553L107.369 246.102C106.842 246.404 106.254 246.575 105.652 246.6C105.05 246.625 104.45 246.504 103.901 246.247V246.247Z" fill="#E9EAF2"/>
</g>
</g>
<g id="left-mail">
<path id="Vector_47" d="M37.2051 99.5294V126.098C37.2045 126.281 37.1729 126.463 37.1116 126.636C37.0782 126.746 37.0348 126.852 36.9819 126.953C36.8266 127.276 36.5898 127.549 36.2966 127.744L1.77538 148.396C1.67837 148.473 1.56126 148.519 1.43913 148.526C1.317 148.534 1.19545 148.504 1.09015 148.439C1.03024 148.393 0.982136 148.332 0.949986 148.262C0.891865 148.134 0.863418 147.994 0.866928 147.853V121.284C0.867488 121.102 0.89551 120.92 0.949986 120.747C0.987366 120.632 1.03247 120.521 1.08496 120.413C1.24373 120.091 1.48194 119.818 1.77538 119.623L36.2862 98.9594C36.3848 98.8826 36.5035 98.8385 36.6267 98.8327C36.7498 98.8269 36.8718 98.8598 36.9767 98.9271C37.0339 98.9743 37.0815 99.0328 37.1168 99.0992C37.1794 99.2331 37.2097 99.3807 37.2051 99.5294Z" fill="#DDB545"/>
<path id="Vector_48" d="M1.15765 148.461L2.48659 149.219L2.56965 146.777L1.15765 148.461Z" fill="#DDB545"/>
<path id="Vector_49" d="M36.8832 98.8948L38.316 99.7069L36.2966 102.213L36.8832 98.8948Z" fill="#DDB545"/>
<path id="Vector_50" d="M38.5444 100.293V126.862C38.5412 127.045 38.5097 127.226 38.451 127.399C38.4153 127.508 38.3719 127.614 38.3212 127.717C38.166 128.04 37.9292 128.313 37.636 128.507L3.11473 149.149C3.01666 149.225 2.899 149.268 2.77689 149.274C2.65477 149.28 2.53379 149.247 2.4295 149.181C2.37088 149.136 2.32298 149.077 2.28934 149.009C2.22746 148.883 2.19713 148.742 2.20109 148.6V122.032C2.20083 121.849 2.23067 121.667 2.28934 121.494C2.43759 121.04 2.7281 120.65 3.11473 120.386L37.6256 99.7446C37.7234 99.6688 37.8407 99.6248 37.9627 99.6181C38.0847 99.6114 38.2058 99.6423 38.3108 99.7069C38.3707 99.7534 38.4188 99.8144 38.451 99.8844C38.5147 100.01 38.5468 100.151 38.5444 100.293V100.293Z" fill="#FFD44D"/>
<path id="Vector_51" opacity="0.12" d="M2.35159 149.278L20.3701 124.339L38.3575 127.631V130.266L2.20105 151.892L2.35159 149.278Z" fill="black"/>
<path id="Vector_52" opacity="0.05" d="M20.3701 124.339L2.38794 121.263L0.731954 120.714L0 151.015L2.42947 149.181L20.3701 124.339Z" fill="black"/>
<path id="Vector_53" opacity="0.05" d="M20.3701 124.339L38.3575 99.7446L40.0135 97.2222L40.7454 126.641L38.3575 127.631L20.3701 124.339Z" fill="black"/>
</g>
<g id="right-mail">
<path id="Vector_54" d="M258.857 33.4687V64.5764C258.853 64.789 258.816 64.9996 258.748 65.2003C258.705 65.3267 258.655 65.4506 258.598 65.5714C258.416 65.9497 258.138 66.2694 257.793 66.4964L217.37 90.6984C217.254 90.7862 217.116 90.8366 216.973 90.8433C216.83 90.85 216.688 90.8127 216.565 90.7361C216.495 90.682 216.439 90.6121 216.399 90.5317C216.329 90.3826 216.296 90.2185 216.3 90.053V58.9185C216.303 58.7132 216.338 58.5097 216.404 58.3161C216.446 58.183 216.498 58.0536 216.56 57.9289C216.742 57.5478 217.023 57.2259 217.37 56.9985L257.783 32.8072C257.897 32.7173 258.035 32.6651 258.179 32.6574C258.322 32.6497 258.465 32.6869 258.588 32.7642C258.659 32.8167 258.716 32.887 258.754 32.9685C258.827 33.1242 258.862 33.2958 258.857 33.4687V33.4687Z" fill="#DDB545"/>
<path id="Vector_55" d="M216.643 90.763L218.2 91.6504L218.299 88.7892L216.643 90.763Z" fill="#DDB545"/>
<path id="Vector_56" d="M258.478 32.7158L260.16 33.6731L257.793 36.6042L258.478 32.7158Z" fill="#DDB545"/>
<path id="Vector_57" d="M260.425 34.3615V65.4692C260.421 65.6818 260.384 65.8923 260.316 66.093C260.273 66.2195 260.222 66.3434 260.166 66.4641C259.98 66.8404 259.703 67.1594 259.361 67.3892L218.937 91.5912C218.822 91.6797 218.684 91.7305 218.541 91.7372C218.397 91.7439 218.255 91.7062 218.133 91.6289C218.062 91.5763 218.005 91.506 217.967 91.4245C217.897 91.2754 217.863 91.1113 217.868 90.9458V59.8113C217.871 59.606 217.906 59.4025 217.972 59.2089C218.012 59.075 218.064 58.9453 218.128 58.8217C218.31 58.4406 218.59 58.1187 218.937 57.8913L259.351 33.7161C259.466 33.6264 259.605 33.5744 259.749 33.5667C259.893 33.5591 260.037 33.5961 260.16 33.6731C260.23 33.7272 260.287 33.7971 260.327 33.8775C260.395 34.0287 260.429 34.1944 260.425 34.3615Z" fill="#FFD44D"/>
<path id="Vector_58" opacity="0.12" d="M218.034 91.7149L239.147 62.5111L260.207 66.3673V69.4544L217.868 94.7805L218.034 91.7149Z" fill="black"/>
<path id="Vector_59" opacity="0.05" d="M239.147 62.5111L218.086 58.9131L216.15 58.2677L215.288 93.7533L218.133 91.6073L239.147 62.5111Z" fill="black"/>
<path id="Vector_60" opacity="0.05" d="M239.147 62.5111L260.207 33.7161L262.143 30.7581L263 65.211L260.207 66.3673L239.147 62.5111Z" fill="black"/>
</g>
<g id="main-mail">
<path id="Vector_61" d="M170.551 24.0837C170.491 23.9304 170.39 23.798 170.26 23.7019C170 23.5613 169.719 23.465 169.429 23.4168L125.59 10.3639L81.7505 75.8653C81.4439 76.2183 81.1822 76.6105 80.9718 77.0323C80.8378 77.2966 80.725 77.5719 80.6344 77.8552C80.4996 78.2697 80.4278 78.7033 80.4215 79.1406V145.212C80.4143 145.565 80.4853 145.914 80.6292 146.234C80.7136 146.403 80.8343 146.551 80.9822 146.664C81.2411 146.829 81.5419 146.91 81.8455 146.895C82.1491 146.881 82.4416 146.772 82.6849 146.584L168.5 95.2538C169.451 94.593 170.165 93.6249 170.53 92.5001C170.677 92.0735 170.754 91.6246 170.758 91.1717V25.1002C170.766 24.7493 170.695 24.4012 170.551 24.0837V24.0837Z" fill="#DDB545"/>
<path id="Vector_62" d="M83.7387 148.358L80.9822 146.637L85.2337 143.464L83.7387 148.358Z" fill="#DDB545"/>
<path id="Vector_63" d="M170.14 23.6266L172.835 25.283L169.071 28.1443L170.14 23.6266Z" fill="#CEB95F"/>
<path id="Vector_64" d="M125.59 10.3639L128.222 12.0042L172.835 25.2777L170.618 23.917C169.762 23.5305 168.876 23.2175 167.971 22.9812L125.59 10.3639Z" fill="#C19B3D"/>
<path id="Vector_65" d="M173.385 26.7405V92.7852C173.378 93.236 173.301 93.6828 173.156 94.1082C173.067 94.3782 172.958 94.6407 172.829 94.8934C172.444 95.6971 171.856 96.3774 171.127 96.8618L85.322 148.192C85.0787 148.382 84.7856 148.493 84.4808 148.508C84.1761 148.523 83.8741 148.443 83.6141 148.278C83.4676 148.162 83.3487 148.013 83.2663 147.842C83.1201 147.525 83.0489 147.177 83.0586 146.826V80.7756C83.0649 80.3383 83.1367 79.9046 83.2715 79.4902C83.363 79.2072 83.4758 78.9321 83.6089 78.6673C83.9969 77.8592 84.5912 77.1765 85.3272 76.6935L171.111 25.3745L169.647 26.4178C170.332 26.0145 172.419 24.9603 172.835 25.283C172.981 25.3989 173.1 25.5479 173.182 25.7187C173.328 26.0377 173.397 26.3881 173.385 26.7405V26.7405Z" fill="#FFD44D"/>
<g id="Group_5">
<path id="Vector_66" opacity="0.12" d="M83.6141 148.278L128.222 86.5088L172.938 94.6944V101.245L83.0535 155.006L83.6141 148.278Z" fill="black"/>
<path id="Vector_67" opacity="0.05" d="M128.222 86.5087L83.5103 78.8663L79.4041 77.5002L77.5768 152.828L83.6141 148.278L128.222 86.5087Z" fill="black"/>
<path id="Vector_68" opacity="0.05" d="M128.128 86.4227L172.84 25.2938L176.946 19.0174L178.773 92.1559L172.84 94.6084L128.128 86.4227Z" fill="black"/>
</g>
<path id="Vector_69" d="M83.6037 78.6673L128.222 12.0042L172.835 25.2831L128.222 86.5088L83.6037 78.6673Z" fill="#FFD44D"/>
<path id="Vector_70" opacity="0.3" d="M172.835 25.2831L162.738 39.1427L128.222 86.5088L93.7109 80.4421L83.6037 78.6673L93.7109 63.5653L118.577 26.4125L128.222 12.0042L137.867 14.8762L162.738 22.282L172.835 25.2831Z" fill="black"/>
<path id="Vector_71" d="M162.738 0V39.1427L128.222 86.5088L93.7109 80.4421V41.2886L162.738 0Z" fill="#FAFBFF"/>
<path id="Vector_72" d="M116.666 58.4882L99.634 68.6746V48.3018L116.666 38.1101V58.4882Z" fill="#E9EAF2"/>
<path id="Vector_73" d="M136.74 46.4786L119.708 56.6704V36.2923L136.74 26.1005V46.4786Z" fill="#E9EAF2"/>
<path id="Vector_74" d="M156.815 34.4744L139.777 44.6662V24.2881L156.815 14.0963V34.4744Z" fill="#E9EAF2"/>
<path id="Vector_75" d="M156.815 42.9344L99.634 77.1345V73.5903L156.815 39.3848V42.9344Z" fill="#E9EAF2"/>
<path id="Vector_76" d="M148.296 52.1204V55.67L104.119 82.0932L99.6288 81.62V81.2327L148.296 52.1204Z" fill="#E9EAF2"/>
<path id="Vector_77" d="M139.777 64.3128V67.8625L113.733 83.4378L108.355 83.1097L139.777 64.3128Z" fill="#E9EAF2"/>
<path id="Vector_78" d="M135.297 74.6337V76.8011L133.512 79.2482L122.906 85.5945L118.291 84.8093L135.297 74.6337Z" fill="#E9EAF2"/>
</g>
</g>
<defs>
<linearGradient id="paint0_linear" x1="136.652" y1="254.046" x2="136.652" y2="139.968" gradientUnits="userSpaceOnUse">
<stop offset="0.21" stop-color="white" stop-opacity="0"/>
<stop offset="1" stop-color="white" stop-opacity="0.2"/>
</linearGradient>
</defs>
</svg>
